<svg id="Слой_1" data-name="Слой 1" xmlns="http://www.w3.org/2000/svg" viewBox="0 0 3200 2000"><defs><style>.cls-1{fill:#fff;}.cls-2{fill:#ebf3fa;}.cls-3{fill:#dfebfd;}.cls-4{fill:#bed7fb;}.cls-5{fill:#9ec3f6;}.cls-6{fill:#cde0fb;}.cls-7{fill:#adcbf9;}.cls-12,.cls-8{fill:#d86713;}.cls-9{fill:#f99746;}.cls-10{fill:#ee9849;}.cls-11{fill:#f1a34f;}.cls-12{opacity:0.4;}.cls-13{fill:#699dee;}.cls-14{fill:#e9f3fe;}.cls-15{fill:#afcdfb;}.cls-16{fill:#2b478b;}.cls-17{fill:#233862;}.cls-18{fill:#c65447;}.cls-19{fill:#ffb27d;}.cls-20{fill:#e2915a;}.cls-21{fill:#fcecdb;}.cls-22{fill:#548ee2;}.cls-23{fill:#f4d2b8;}.cls-24{fill:#568cdb;}.cls-25{fill:#b5453c;}.cls-26{fill:#ed7d2b;}.cls-27{fill:#ed975d;}.cls-28{fill:#ebf3ff;}.cls-29{fill:#2e3552;}</style></defs><rect class="cls-1" width="3200" height="2000"/><path class="cls-2" d="M367.52,1785.65S30.05,1423.31,310.45,1031C559.24,683,849.31,706.76,1062.12,848c90.65,60.16,352,7.42,574.4-346.75,303.32-483,1354.76-190,1163.05,553-92.78,359.6,282.35,372.67,91.21,732.13Z" transform="translate(-0.01 -0.01)"/><rect class="cls-3" x="468.4" y="1361.83" width="324.59" height="324.59" transform="translate(-865.51 829.76) rotate(-42.63)"/><rect class="cls-4" x="380.63" y="1396.08" width="324.59" height="65.37" transform="translate(-824.12 745.13) rotate(-42.63)"/><polygon class="cls-5" points="1337.69 353.96 1501.46 377.32 1392.78 303.25 1387.26 327 1347.43 334.21 1337.69 353.96"/><polygon class="cls-6" points="1501.46 377.32 1365.18 307.06 1231.61 300.34 1501.46 377.32"/><polygon class="cls-6" points="1392.78 303.25 1501.46 377.32 1417.33 261.56 1392.78 303.25"/><path class="cls-1" d="M2253.47,677.05l-41.19,29.56-41.41-29.24a50.7,50.7,0,0,1,82.6-.32Z" transform="translate(-0.01 -0.01)"/><path class="cls-1" d="M2212.28,583.89A122.42,122.42,0,0,0,2112.07,636l26.15,18.36a90.54,90.54,0,0,1,147.69-.53l26-18.68A122.53,122.53,0,0,0,2212.28,583.89Z" transform="translate(-0.01 -0.01)"/><path class="cls-1" d="M2212.28,447c-87.61,0-165.09,43.54-212.05,110.13l26.15,18.36a227.36,227.36,0,0,1,370.84-1.39l25.93-18.68A259,259,0,0,0,2212.28,447Z" transform="translate(-0.01 -0.01)"/><path class="cls-1" d="M2212.28,521.88A185.31,185.31,0,0,0,2061.06,600l26.15,18.36a153.61,153.61,0,0,1,249.5-1l25.93-18.57A185.25,185.25,0,0,0,2212.28,521.88Z" transform="translate(-0.01 -0.01)"/><path class="cls-7" d="M1357.84,856.41l-37.76-.87c12.13,15.73,14.85,30.22,7.3,42.47-7.55,12.51-25.63,22.79-52.62,30.59a487.95,487.95,0,0,0-112.18-515.34C1072.17,322.85,950,270.37,817.74,270.37A484.8,484.8,0,0,0,606.5,318.29l-.06,0c-21-6.4-41.41-11.65-61.13-15.64-99.51-20.2-170.13-6.24-198.82,39.3-27.3,43.31-12.43,108.5,41.74,184.54l0,0a490.11,490.11,0,0,0-32.32,74.3c-101.78,6.06-156.26,24-176.07,56.42C156.78,695,188.24,745.72,288.9,795c13.87,6.81,28.73,13.49,44.33,20.18,12.06,106,60.33,208.66,139.54,287.88a489.29,489.29,0,0,0,155,104.5c177.89,75,390,39.91,534.78-104.5A485.77,485.77,0,0,0,1265.1,952.5c49.65-10.28,82.34-26.38,95.34-47.68C1369.48,890.09,1368.37,873.75,1357.84,856.41Zm-116.51,79.87c-33.06,5.94-74.3,9.41-122.46,9.9-74.74.91-160.58-5-251-16.91q11.42-24.85,22.35-51a690.43,690.43,0,0,0,81.3,22.1c29.76,6,56.92,9,81.17,9,56.82,0,97.54-16.4,117.65-48.32a83.5,83.5,0,0,0,8.09-16.72h-29c-.48.88-1,1.75-1.53,2.6-14.93,23.71-48.31,36-95.18,35.95-22.41,0-47.93-2.8-76-8.5a660.51,660.51,0,0,1-76.51-20.69q10.46-26.18,20.3-53.3c17.66-48.69,32.78-96.95,45-143.3,99.1,14.61,202.64,15,302.1,7.55a462.14,462.14,0,0,1,9.47,93.45A456.69,456.69,0,0,1,1241.33,936.28ZM637.79,1178.07c-14.09-5.11-21.25-25.33-24.77-41.4-5.56-25.39-6.56-61-2.9-103.12,1.85-21.28,4.82-43.9,8.83-67.57a1256.44,1256.44,0,0,1,170.62,59c-12.54,21.63-25.23,41.69-37.91,59.87-24.16,34.64-47.79,61.36-68.33,77.28C670.33,1172.24,651.88,1183.18,637.79,1178.07Zm164.54-175.69a1281.51,1281.51,0,0,0-178.74-61.9q3.2-16.47,7-33.5,25.24,5.73,51.18,11.09c50.58,10.35,101,19.13,150.42,26.24C822.42,964.54,812.44,984,802.33,1002.38ZM692.93,899.75q-29.32-6-57.73-12.59c8.91-37.07,19.86-75.72,32.63-115.11,66.43,40.83,134,74.05,197.94,97.62q-12,28.74-24.68,55.92C792.5,918.62,742.8,910,692.93,899.75ZM530.69,399.29c36.93,75.64,108.08,138,184.65,179.31C696.79,619,679.12,662.16,662.88,707q-4.54,12.52-8.86,25C557,668.8,474.83,596.32,420.94,526.18l0,0A461.87,461.87,0,0,1,530.69,399.29Zm414.93-70c14.09,5.11,21.24,25.33,24.76,41.4,5.56,25.39,6.57,61,2.91,103.12-4,46.05-13.23,98.36-26.95,154.06-67.49-11.61-134.93-30.76-197-60.89,26.47-55.19,54.45-104.4,82.43-144.51,24.16-34.64,47.79-61.36,68.33-77.28,10.72-8.31,25.15-17.2,37.78-17.2A22.79,22.79,0,0,1,945.62,329.29ZM939.92,653c-11.91,44.81-26.59,91.49-43.68,138.62q-9.88,27.25-20.43,53.58c-64.21-23.57-132.37-57.29-199.37-98.94q5.19-15.19,10.73-30.46c15.88-43.79,33.12-85.94,51.19-125.4C801.6,621,870.11,640.8,939.92,653Zm202.6-219.78a458,458,0,0,1,119.1,206c-105.9,7.75-202.94,5.32-289.68-7.24C985.7,575.69,995,522.78,999,476.05c4.49-51.61,3.94-112.74-17-147.13A456.75,456.75,0,0,1,1142.52,433.19ZM817.74,298.6a459.71,459.71,0,0,1,93.72,9.56c-36.09,15.71-72.94,59.43-100.91,99.53-28.62,41-57.21,91.26-84.2,147.47-72.87-39.59-141.7-100.29-174.6-171.79A457.91,457.91,0,0,1,817.74,298.6ZM368.9,356.1c14.93-23.71,48.31-36,95.18-36,22.41,0,47.93,2.8,76,8.49q16,3.24,32.58,7.61h0C505.76,375,446.82,431,402.94,501.17l0,0C361.5,439.72,349.05,387.58,368.9,356.1Zm38.25,195.47v0C463.91,622.47,547.56,695,645.29,757.88c-13.86,42.17-25.68,83.62-35.23,123.35-81-19.61-175.21-47.34-249.59-78.8a457.47,457.47,0,0,1,46.68-250.86ZM311.44,780.39c-87.79-42.85-127.91-84.2-110-113.55C216,643.07,268.72,627,349.45,621c-16.28,54.93-21.94,112-18.57,168.52C324.19,786.58,317.75,783.48,311.44,780.39Zm294,120.73q-3.75,16.75-6.93,33-8.44-2.05-16.91-4c-95.3-21.69-166.81-26.1-200-26.85a448.93,448.93,0,0,1-18.08-75.85C428.49,852.41,501.57,876.37,605.44,901.12ZM391.24,929.5c35.35,1.42,100.9,6.78,184.63,25.84,6,1.36,12,2.79,18,4.25-4.31,25.13-7.49,49.15-9.45,71.72-3.72,42.77-4,92.08,7.94,127.3A461.88,461.88,0,0,1,391.24,929.5Zm287.18,266.6c34-17.82,68.14-58.73,94.43-96.43,13.57-19.44,27.12-41,40.51-64.19a1298.47,1298.47,0,0,1,221,127.88A460.14,460.14,0,0,1,678.42,1196.1Zm464.1-113.1a456,456,0,0,1-83.57,66.24A1324.81,1324.81,0,0,0,826,1012.87c11.2-20.53,22.24-42.21,33-64.85,74.59,9.89,146.3,15.82,211.77,17.35,17.08.5,33.67.5,49.77.37,41.73-.49,78.87-3,110.7-7.43A456.47,456.47,0,0,1,1142.52,1083Z" transform="translate(-0.01 -0.01)"/><path class="cls-8" d="M1132.1,932.53l-67.45,802s-7.07,48.61,29.09,48.7c59.46.14,295.93,0,295.93,0s-44.75-10.12-44.2-32.89c.63-26.84,78.83-825.38,78.83-825.38Z" transform="translate(-0.01 -0.01)"/><path class="cls-9" d="M1408.86,1768.66c-11.7,0-237.56.74-295.46,0-25.23-.32-29.66-22.44-29.87-36.76a72.1,72.1,0,0,1,.77-11.94l1.75-20.84,4.48-53.13,3.94-46.93,5.08-60.32,4.27-50.91L1151.75,918l292.2-7.58s-32.93,334.18-56.23,577.44c-2.6,27.1-5.07,53.09-7.36,77.35q-1.11,11.63-2.15,22.69c-2.16,23-4.13,44.15-5.85,62.81-.9,9.84-1.74,19-2.5,27.35-3,32.81-4.71,53.76-4.73,57.74a32.53,32.53,0,0,0,.57,6.49C1370.49,1767.82,1404.47,1768.66,1408.86,1768.66Z" transform="translate(-0.01 -0.01)"/><polygon class="cls-9" points="422.46 496.11 586.75 1156.04 609.24 1246.42 685.76 1553.8 2107.37 1553.8 1825.33 496.11 422.46 496.11"/><polygon class="cls-10" points="422.45 496.11 399.69 503.7 655.49 1576.76 685.76 1553.8 422.45 496.11"/><polygon class="cls-8" points="655.49 1576.76 2068.35 1576.76 2107.36 1553.8 685.76 1553.8 655.49 1576.76"/><rect class="cls-11" x="1151.65" y="1768.98" width="305.9" height="14.54" transform="translate(2609.2 3552.48) rotate(180)"/><polygon class="cls-11" points="2038.5 1358.9 1807.83 510.1 420.18 510.1 420.18 496.11 1825.33 496.11 2055.23 1357.02 2038.5 1358.9"/><polygon class="cls-8" points="1379.79 1576.75 1378.21 1587.86 1090.52 1645.98 1094.47 1599.05 1096.35 1576.75 1379.79 1576.75"/><path class="cls-12" d="M1408.86,1768.66c-11.7,0-237.56.74-295.46,0-25.23-.32-29.66-22.44-29.87-36.76L1369.86,1678c-3,32.81-4.71,53.76-4.73,57.74a32.53,32.53,0,0,0,.57,6.49C1370.49,1767.82,1404.47,1768.66,1408.86,1768.66Z" transform="translate(-0.01 -0.01)"/><polygon class="cls-12" points="1310.25 1339.68 685.76 1553.8 609.24 1246.42 1310.25 1339.68"/><polygon class="cls-13" points="422.45 496.11 1825.33 496.11 2052.95 1346.16 626.85 1346.16 422.45 496.11"/><path class="cls-8" d="M1434.26,1453.62c-4-20.84-24.24-37.74-45.08-37.74s-34.47,16.9-30.41,37.74,24.23,37.75,45.08,37.75S1438.31,1474.47,1434.26,1453.62Z" transform="translate(-0.01 -0.01)"/><polygon class="cls-14" points="1986.79 1309.32 673.27 1309.32 524.51 716.74 513.12 671.3 503.38 632.54 495.6 601.5 480.57 541.65 1775.15 541.65 1776.06 544.94 1791.64 601.5 1800.2 632.54 1810.89 671.3 1823.42 716.74 1986.79 1309.32"/><polygon class="cls-14" points="1986.79 1311.35 673.27 1311.35 524.51 718.76 513.12 673.33 503.38 634.56 495.6 603.53 480.57 543.67 1775.15 543.67 1776.06 546.97 1791.64 603.53 1800.2 634.56 1810.89 673.33 1823.42 718.76 1986.79 1311.35"/><polygon class="cls-15" points="1791.64 601.5 495.6 601.5 480.57 541.65 1774.65 541.65 1776.06 544.94 1791.64 601.5"/><path class="cls-14" d="M516.59,571.58c-1.57-6.27,2.25-11.36,8.53-11.36s12.63,5.09,14.19,11.36S537.06,583,530.78,583,518.15,577.86,516.59,571.58Z" transform="translate(-0.01 -0.01)"/><ellipse class="cls-14" cx="565.7" cy="571.58" rx="10.03" ry="12.87" transform="translate(-237.2 617.22) rotate(-48.55)"/><path class="cls-14" d="M595,571.58c-1.57-6.27,2.25-11.36,8.53-11.36s12.63,5.09,14.19,11.36S615.46,583,609.18,583,596.55,577.86,595,571.58Z" transform="translate(-0.01 -0.01)"/><path class="cls-16" d="M1082.45,1311.36H952.57c-1.24-10.15-2.34-20.88-3.33-32.08-1.74-20.07-3.08-41.67-4.06-64.13-.24-5.19-.44-10.41-.63-15.68-.25-6.7-.47-13.48-.66-20.29-.32-11.57-.57-23.27-.75-35a.06.06,0,0,1,0,0c-.22-15-.34-30.12-.37-45.17h0c0-3.76,0-7.52,0-11.26v0c0-3.53,0-7,0-10.54.11-32.4.6-64.18,1.29-93.73C945.55,918,948,863.5,949.27,837.31h0c.52-10.75.86-16.73.86-16.73l0,0c.29,0,2.26.4,5.36,1.15,2.28.55,5.17,1.31,8.45,2.32h0c3,.89,6.23,2,9.67,3.31h0a113.07,113.07,0,0,1,18.08,8.73l.28.14c9.69,6,18.45,14,22.45,24.54,3.43,9,11.45,57.06,21.15,121,.27,1.82.55,3.65.83,5.51,5.12,33.93,10.67,72,16.24,110.88,5.9,41.19,11.79,83.27,17.21,122.26C1074.56,1253.84,1078.85,1285,1082.45,1311.36Z" transform="translate(-0.01 -0.01)"/><path class="cls-17" d="M1046.08,1311.36H894.9c-2.9-12.47-5.62-24.5-8-35.79-6.64-31.1-11-56.59-10.77-70.28a20.47,20.47,0,0,1,6.7-15.3,33.13,33.13,0,0,1,10.83-6.4c12.75-4.84,31.08-5.63,50.26-4.41,6.52.41,13.13,1,19.65,1.83a572.64,572.64,0,0,1,69.28,13.26s2.23,9,4.87,24.78c2,11.83,4.19,27.47,5.83,45.94,1,10.73,1.72,22.42,2.15,34.88Q1045.85,1305.49,1046.08,1311.36Z" transform="translate(-0.01 -0.01)"/><path class="cls-18" d="M976.26,1205.47l-1.51,10.92-7.32,53-1.24,9-4.54,32.88H804.1c-1.23-21.73-2.36-42.91-2.57-61.37q0-3.06,0-6c0-27.79,2.45-48.4,10.42-53.61,9-5.89,39-4.28,70.89-.37,3.18.38,6.38.8,9.58,1.23,18.6,2.5,37.2,5.59,52.17,8.25,7.76,1.38,14.54,2.65,19.81,3.66C971.81,1204.55,976.26,1205.47,976.26,1205.47Z" transform="translate(-0.01 -0.01)"/><path class="cls-1" d="M801.49,847.92s86.56-56,148.64-27.34c9.89,4.56,21.18,17.29,29.26,26.19,22.44,24.73,66.28,417.52,66.28,417.52S921.2,1306.45,801.49,1250Z" transform="translate(-0.01 -0.01)"/><path class="cls-16" d="M955.05,819.16s87.63,35.91,99.5,63.5,50.44,197,50.44,216.9-67.17,4.44-78-27.6c-9-26.61-39.26-108.36-55.23-160.07Z" transform="translate(-0.01 -0.01)"/><path class="cls-19" d="M936.86,846.52c-19.13,3.75-47.23-.25-67.8-13.81,9.28-22.18,13.09-39.7,14.45-51,.08-.6.13-1.19.19-1.75a51.55,51.55,0,0,0,.24-11.69H933.4s13.51,6.18,13.51,10.45c0,2.29,0,4.47.06,6.56.1,5.69.33,10.65.63,14.91.94,13.88,2.53,20.42,2.53,20.42S956.17,842.73,936.86,846.52Z" transform="translate(-0.01 -0.01)"/><path class="cls-20" d="M947.6,800.16c-37.47,7.24-59.22-13.23-64.09-18.48-.7-.75-1-1.2-1-1.2.39-.2.81-.37,1.24-.55,13.95-5.65,45.6-1.16,63.27,5.32C947.07,790.94,947.3,795.9,947.6,800.16Z" transform="translate(-0.01 -0.01)"/><path class="cls-19" d="M871.27,760.11c6.69,36,53.19,34.85,73.28,32.58,5.66-.63,9.21-1.35,9.21-1.35,6.38-1.7,9.94-11.74,11.59-24.9,3.28-26-.87-64.24-5.26-74-6.62-14.7-19.09-30.61-65.91-19.13S862.68,713.94,871.27,760.11Z" transform="translate(-0.01 -0.01)"/><path class="cls-17" d="M961.83,672.32c-6.4-8.86-20-19.68-32.29-26.35-26.48-14.32-60.36.45-60.5.51-38.25,16.82-48.23,46.08-28,91.66,21.44,48.19,41.86,42.77,41.86,42.77s-4.34-2.7-3.94-17.72c0-.85,0-1.56.09-2.18a10.11,10.11,0,0,0-3.19-8.22c-4.75-4.24-7.06-17.06-3.09-20.63,4.8-4.31,11.55.93,13.7,5A5.87,5.87,0,0,0,894.9,739c11.91-7.52,4.17-22.57,15.55-31.78s34.45-1.48,51.52-8.82C984.3,690,966.65,679,961.83,672.32Z" transform="translate(-0.01 -0.01)"/><path class="cls-16" d="M968,1311.36H779.51c1.35-39.08,3.08-85.74,4.9-133,.47-12.25,1-24.55,1.43-36.75.22-5.17.41-10.31.61-15.45,4.17-104.91,8.3-199.65,9.17-204.76,2-11.54,3.85-21.37,5.87-29.91,5.92-24.85,13.28-38.48,29.33-50.2,1.56-1.19,14.39-7.65,25.7-13.29,9.23-4.58,17.45-8.59,17.7-8.7h0c1.87.9,3.93,3.51,6.1,7.36a123.16,123.16,0,0,1,6.8,15c8.62,22.13,17.92,56,24.38,81.28a.45.45,0,0,1,0,.08.11.11,0,0,1,0,.05h0c4.17,16.33,7.16,29,8,32.69,1.44,6.16,3.35,18.08,5.6,34.22v0c3,22,6.68,51.88,10.52,85.78h0c.4,3.49.8,7,1.19,10.56.45,4.06.92,8.17,1.38,12.32h0c.15,1.34.3,2.68.43,4h0c1.49,13.43,3,27.27,4.46,41.36a.06.06,0,0,0,0,0c1.27,11.61,18.88,20,20.1,31.85.09.86.18,2.6.3,5,.22,5,.49,12.94.82,22.12.14,4.08.29,8.42.44,12.84.69,19.67,1.54,41.22,2.51,51.59,0,.49.09,1.11.12,1.87.11,2.07.2,5.11.28,8.94C967.87,1286.49,968,1298.12,968,1311.36Z" transform="translate(-0.01 -0.01)"/><path class="cls-17" d="M839.42,963.72c-.06.24-3,106.08,76.62,118.94s26.71,16.26,26.71,16.26-149.8-6.37-152.28-10.32S839.42,963.72,839.42,963.72Z" transform="translate(-0.01 -0.01)"/><path class="cls-17" d="M906.69,1128.1s-1.5,1.06-4.36,2.91l-.15.09C890,1138.85,854,1160,801.49,1174.16c-5.51,1.49-11.21,2.91-17.07,4.21.46-12.24,1-24.54,1.42-36.74a152.37,152.37,0,0,1-19.73-2.73c.21-1.61.43-3.22.63-4.84,6.68-2.74,13.32-5.38,19.72-7.88,5.21-2,10.25-4,15-5.78,21.56-8.19,37.55-13.73,37.55-13.73l63.82,20.21Z" transform="translate(-0.01 -0.01)"/><path class="cls-16" d="M923.58,1126.33s-8.2,2.05-21.25,4.68a.35.35,0,0,0-.14,0c-24.08,4.83-64.55,11.62-100.7,11.25-5.33-.06-10.57-.26-15.65-.66a152.37,152.37,0,0,1-19.73-2.73c-13.21-2.79-24.28-7.51-31.52-14.89-53.78-54.77,29.35-251.36,46.82-270.49,20.41-22.33,57.65-30.16,78.21-32.85l2.48-.32c7.23-.86,11.87-1,12.13-1.05h0s-1.62,5.19-4.32,14c-1,3.4-2.26,7.35-3.6,11.75-12.63,41.36-37,122.65-47.74,168.5-3.93,16.77-6,28.8-5.08,32.39,4.19,15.65,47.64,23.71,75.17,27.27,11.48,1.48,20.19,2.18,22.14,2.33a2.83,2.83,0,0,1,.41,0l1.59,6.53,3.81,15.65,3.75,15.39Z" transform="translate(-0.01 -0.01)"/><polygon class="cls-9" points="1073.56 1220.55 888.87 1212.77 926.34 982.61 1111.03 990.39 1073.56 1220.55"/><path class="cls-19" d="M911.22,1075.55s35.95-2.51,37.75,5.87c4.21,19.54-30.91,35.58-42.28,34.48S902.94,1074.25,911.22,1075.55Z" transform="translate(-0.01 -0.01)"/><path class="cls-19" d="M1100.94,1037.14s-34.4-10.76-38.09-3c-8.61,18,21.84,41.76,33.16,43.32S1109.29,1037.78,1100.94,1037.14Z" transform="translate(-0.01 -0.01)"/><path class="cls-17" d="M878,807.75s-15.13,7.2-22.71,18.08c0,0,56.53,98.16,56.28,97.24S892.43,820.32,878,807.75Z" transform="translate(-0.01 -0.01)"/><path class="cls-17" d="M948.38,809.13c5,1.88,14.53,11.66,16.68,17.07l6.72,85.69S957.43,849,950.13,820.58A47.77,47.77,0,0,1,948.38,809.13Z" transform="translate(-0.01 -0.01)"/><path class="cls-18" d="M987.57,985.2s1.46-6.39,9.87-5.65,55.63,3.07,55.63,3.07,9.11-.15,8.27,5.68Z" transform="translate(-0.01 -0.01)"/><path class="cls-1" d="M933.4,768.24a19.69,19.69,0,0,0,16,3.85c5.86-1,9.14-8.65,9.14-8.65S947.29,761.41,933.4,768.24Z" transform="translate(-0.01 -0.01)"/><polygon class="cls-1" points="1808.52 839.85 1672.1 840.36 1627.86 670.99 1764.28 670.49 1808.52 839.85"/><polygon class="cls-7" points="1730.45 692.74 1673.25 692.95 1672.59 690.45 1729.79 690.24 1730.45 692.74"/><polygon class="cls-7" points="1739.58 699.71 1667.77 699.97 1667.11 697.46 1738.93 697.2 1739.58 699.71"/><polygon class="cls-7" points="1759.33 734.17 1666.05 734.52 1665.39 732.01 1758.67 731.67 1759.33 734.17"/><polygon class="cls-7" points="1761.48 742.43 1668.2 742.77 1667.55 740.27 1760.83 739.92 1761.48 742.43"/><polygon class="cls-7" points="1763.64 750.69 1670.36 751.03 1669.7 748.53 1762.99 748.18 1763.64 750.69"/><polygon class="cls-7" points="1765.8 758.95 1672.52 759.29 1671.86 756.78 1765.14 756.44 1765.8 758.95"/><polygon class="cls-7" points="1767.96 767.21 1674.67 767.55 1674.02 765.04 1767.3 764.7 1767.96 767.21"/><polygon class="cls-7" points="1773.2 787.3 1679.92 787.64 1679.27 785.14 1772.55 784.79 1773.2 787.3"/><polygon class="cls-7" points="1775.36 795.56 1682.08 795.9 1681.42 793.4 1774.71 793.05 1775.36 795.56"/><polygon class="cls-7" points="1777.52 803.82 1684.23 804.16 1683.58 801.65 1776.86 801.31 1777.52 803.82"/><polygon class="cls-7" points="1779.68 812.07 1686.39 812.42 1685.74 809.91 1779.02 809.57 1779.68 812.07"/><polygon class="cls-7" points="1781.83 820.33 1688.55 820.68 1687.89 818.17 1781.18 817.83 1781.83 820.33"/><polygon class="cls-1" points="1863.49 1050.31 1727.07 1050.81 1682.83 881.45 1819.26 880.94 1863.49 1050.31"/><polygon class="cls-7" points="1785.42 903.2 1728.22 903.41 1727.56 900.9 1784.77 900.69 1785.42 903.2"/><polygon class="cls-7" points="1794.55 910.16 1722.74 910.42 1722.08 907.92 1793.9 907.65 1794.55 910.16"/><polygon class="cls-7" points="1814.3 944.63 1721.02 944.97 1720.36 942.47 1813.64 942.12 1814.3 944.63"/><polygon class="cls-7" points="1816.46 952.89 1723.17 953.23 1722.52 950.72 1815.8 950.38 1816.46 952.89"/><polygon class="cls-7" points="1818.61 961.14 1725.33 961.49 1724.68 958.98 1817.96 958.64 1818.61 961.14"/><polygon class="cls-7" points="1820.77 969.4 1727.49 969.75 1726.83 967.24 1820.12 966.9 1820.77 969.4"/><polygon class="cls-7" points="1822.93 977.66 1729.64 978 1728.99 975.5 1822.27 975.15 1822.93 977.66"/><polygon class="cls-7" points="1828.18 997.75 1734.89 998.1 1734.24 995.59 1827.52 995.25 1828.18 997.75"/><polygon class="cls-7" points="1830.33 1006.01 1737.05 1006.36 1736.39 1003.85 1829.68 1003.51 1830.33 1006.01"/><polygon class="cls-7" points="1832.49 1014.27 1739.21 1014.62 1738.55 1012.11 1831.84 1011.76 1832.49 1014.27"/><polygon class="cls-7" points="1834.65 1022.53 1741.36 1022.87 1740.71 1020.37 1833.99 1020.02 1834.65 1022.53"/><polygon class="cls-7" points="1836.81 1030.79 1743.52 1031.13 1742.87 1028.63 1836.15 1028.28 1836.81 1030.79"/><polygon class="cls-1" points="1918.84 1262.18 1782.41 1262.68 1738.17 1093.32 1874.6 1092.81 1918.84 1262.18"/><polygon class="cls-7" points="1840.76 1115.07 1783.56 1115.28 1782.9 1112.77 1840.11 1112.56 1840.76 1115.07"/><polygon class="cls-7" points="1849.89 1122.03 1778.08 1122.3 1777.42 1119.79 1849.24 1119.52 1849.89 1122.03"/><polygon class="cls-7" points="1869.64 1156.5 1776.36 1156.84 1775.7 1154.34 1868.99 1153.99 1869.64 1156.5"/><polygon class="cls-7" points="1871.8 1164.76 1778.52 1165.1 1777.86 1162.59 1871.14 1162.25 1871.8 1164.76"/><polygon class="cls-7" points="1873.96 1173.01 1780.67 1173.36 1780.02 1170.85 1873.3 1170.51 1873.96 1173.01"/><polygon class="cls-7" points="1876.11 1181.27 1782.83 1181.62 1782.17 1179.11 1875.46 1178.77 1876.11 1181.27"/><polygon class="cls-7" points="1878.27 1189.53 1784.99 1189.88 1784.33 1187.37 1877.61 1187.02 1878.27 1189.53"/><polygon class="cls-7" points="1883.52 1209.63 1790.23 1209.97 1789.58 1207.46 1882.86 1207.12 1883.52 1209.63"/><polygon class="cls-7" points="1885.68 1217.88 1792.39 1218.23 1791.74 1215.72 1885.02 1215.38 1885.68 1217.88"/><polygon class="cls-7" points="1887.83 1226.14 1794.55 1226.49 1793.89 1223.98 1887.18 1223.63 1887.83 1226.14"/><polygon class="cls-7" points="1889.99 1234.4 1796.71 1234.74 1796.05 1232.24 1889.34 1231.89 1889.99 1234.4"/><polygon class="cls-7" points="1892.15 1242.66 1798.86 1243 1798.21 1240.5 1891.49 1240.15 1892.15 1242.66"/><polygon class="cls-1" points="1739.46 1263.61 1262.32 1265.37 1125 739.64 1187.15 672.71 1584.73 671.24 1739.46 1263.61"/><polygon class="cls-7" points="1453.3 760.09 1285.14 760.71 1283.21 753.34 1451.37 752.72 1453.3 760.09"/><polygon class="cls-7" points="1480.14 780.55 1269.02 781.34 1267.1 773.97 1478.22 773.19 1480.14 780.55"/><polygon class="cls-7" points="1538.19 881.88 1263.97 882.89 1262.04 875.53 1536.27 874.51 1538.19 881.88"/><polygon class="cls-7" points="1544.54 906.16 1270.31 907.17 1268.38 899.8 1542.61 898.79 1544.54 906.16"/><polygon class="cls-7" points="1550.88 930.43 1276.65 931.45 1274.72 924.08 1548.95 923.07 1550.88 930.43"/><polygon class="cls-7" points="1557.22 954.71 1282.99 955.72 1281.07 948.36 1555.29 947.34 1557.22 954.71"/><polygon class="cls-7" points="1563.56 978.99 1289.33 980 1287.41 972.63 1561.63 971.62 1563.56 978.99"/><polygon class="cls-7" points="1578.99 1038.06 1304.76 1039.07 1302.84 1031.71 1577.07 1030.69 1578.99 1038.06"/><polygon class="cls-7" points="1585.33 1062.34 1311.1 1063.35 1309.18 1055.98 1583.41 1054.97 1585.33 1062.34"/><polygon class="cls-7" points="1591.67 1086.61 1317.44 1087.63 1315.52 1080.26 1589.75 1079.25 1591.67 1086.61"/><polygon class="cls-7" points="1598.01 1110.89 1323.79 1111.9 1321.86 1104.54 1596.09 1103.52 1598.01 1110.89"/><polygon class="cls-7" points="1604.35 1135.17 1330.13 1136.18 1328.2 1128.81 1602.43 1127.8 1604.35 1135.17"/><polygon class="cls-7" points="1125 739.64 1204.56 739.35 1187.15 672.71 1125 739.64"/><path class="cls-21" d="M1885.79,1538.73h389.68a54.86,54.86,0,0,1,54.86,54.86v26.24a56.1,56.1,0,0,1-56.1,56.1H1885.79a0,0,0,0,1,0,0V1538.73A0,0,0,0,1,1885.79,1538.73Z"/><path class="cls-13" d="M2661.88,1595.18v20.64a60.1,60.1,0,0,1-60.11,60.11H1873.89a8.73,8.73,0,0,1-8.72-8.72v-3.09a8.73,8.73,0,0,1,8.72-8.71H2317.6a56.42,56.42,0,0,0,6.23-9.36,55.78,55.78,0,0,0,6.5-26.22v-26.24a54.53,54.53,0,0,0-12.08-34.33H1873.89a8.72,8.72,0,0,1-8.72-8.72v-3.08a8.72,8.72,0,0,1,8.72-8.72h731.54a56.38,56.38,0,0,1,56.45,56.44Z" transform="translate(-0.01 -0.01)"/><path class="cls-22" d="M2659.71,1579.63H2328.54a54.87,54.87,0,0,0-10.29-20.37H1873.89a8.72,8.72,0,0,1-8.72-8.72v-3.08a8.72,8.72,0,0,1,8.72-8.72h731.54A56.47,56.47,0,0,1,2659.71,1579.63Z" transform="translate(-0.01 -0.01)"/><polygon class="cls-23" points="1885.79 1607.33 1939.69 1609.63 1885.79 1611.02 1885.79 1607.33"/><polygon class="cls-23" points="1885.79 1628.85 2014.01 1631.16 1885.79 1632.55 1885.79 1628.85"/><path class="cls-16" d="M1923.4,1675.64h413.5a55,55,0,0,1,55,55v0a51.68,51.68,0,0,1-51.68,51.68H1923.4a0,0,0,0,1,0,0V1675.64A0,0,0,0,1,1923.4,1675.64Z" transform="translate(4315.33 3457.98) rotate(-180)"/><path class="cls-21" d="M2314.47,1675.64h470.6a53.73,53.73,0,0,1,53.73,53.73v.43a52.54,52.54,0,0,1-52.54,52.54h-471.8a0,0,0,0,1,0,0V1675.64A0,0,0,0,1,2314.47,1675.64Z" transform="translate(5153.27 3457.98) rotate(180)"/><path class="cls-16" d="M2283,1782.35h572.11a8,8,0,0,0,8-8h0a8,8,0,0,0-8-8H2283a8,8,0,0,0-8,8h0A8,8,0,0,0,2283,1782.35Z" transform="translate(-0.01 -0.01)"/><path class="cls-16" d="M2283,1691.6h572.11a8,8,0,0,0,8-8h0a8,8,0,0,0-8-8H2283a8,8,0,0,0-8,8h0A8,8,0,0,0,2283,1691.6Z" transform="translate(-0.01 -0.01)"/><polygon class="cls-23" points="2838.8 1728.99 2775.23 1730.78 2838.8 1731.86 2838.8 1728.99"/><polygon class="cls-23" points="2838.8 1704.43 2687.56 1706.22 2838.8 1707.3 2838.8 1704.43"/><path class="cls-13" d="M2689.13,1705.87s6.48,4.59,8.62,12.13a16.77,16.77,0,0,1,.67,4.21c.36,10,0,32.68,0,32.68l19.14-11.33,19.08,11.33v-30.72c0-5.81-1.63-11.46-4.67-15.15-1.48-1.8-3.26-3.15-5.29-3.15Z" transform="translate(-0.01 -0.01)"/><path class="cls-24" d="M2689.13,1705.87s6.48,4.59,8.62,12.13l38.35.44s-1.51-10.79-9.42-12.57Z" transform="translate(-0.01 -0.01)"/><path class="cls-21" d="M2257.43,1382.25h422.48a62.65,62.65,0,0,1,62.65,62.65v32.87a61.26,61.26,0,0,1-61.26,61.26H2257.43a0,0,0,0,1,0,0V1382.25A0,0,0,0,1,2257.43,1382.25Z" transform="translate(4999.98 2921.26) rotate(180)"/><path class="cls-25" d="M2267.37,1443.08v33.74a39,39,0,0,0,19.8,33.6,39.41,39.41,0,0,0,19.53,5.15h458.8a9.74,9.74,0,0,1,9.74,9.74v4a9.74,9.74,0,0,1-9.74,9.74H1972.91a67.13,67.13,0,0,1-67.13-67.13v-26.62a63,63,0,0,1,63-63H2765.5a9.73,9.73,0,0,1,9.74,9.73v4a9.74,9.74,0,0,1-9.74,9.73H2305.29a38,38,0,0,0-27.9,12.18A37.25,37.25,0,0,0,2267.37,1443.08Z" transform="translate(-0.01 -0.01)"/><polygon class="cls-23" points="2742.55 1460.63 2683.73 1463.26 2742.55 1464.85 2742.55 1460.63"/><polygon class="cls-23" points="2742.55 1424.55 2602.62 1427.18 2742.55 1428.77 2742.55 1424.55"/><path class="cls-9" d="M2604.07,1426.67s9.23,5,12.29,13.14a14.72,14.72,0,0,1,1,4.57c.51,10.86,0,35.43,0,35.43l27.26-12.28,27.2,12.28v-33.3c0-6.3-2.34-12.43-6.67-16.44a11.28,11.28,0,0,0-7.53-3.4Z" transform="translate(-0.01 -0.01)"/><path class="cls-26" d="M2604.07,1426.67s9.23,5,12.29,13.14l54.64.49s-2.14-11.7-13.42-13.63Z" transform="translate(-0.01 -0.01)"/><path class="cls-17" d="M2327.42,1324.12c24.19,42.08,54.6,58.33,54.6,58.33h126.54S2309,1292,2327.42,1324.12Z" transform="translate(-0.01 -0.01)"/><path class="cls-19" d="M2424.61,1649.76c3.29,3.78,3.71,8,2.08,12.51a.09.09,0,0,1,0,.06c-3,8.34-13,17.65-24.57,27-1.48,1.19-2.8,2.28-3.94,3.28-.3.27-.61.53-.89.8l-.68.61c-10.8,10-6.74,12.24-26.14,32.44-22.12,23-37.36,23.43-41.69,21.34-3.66-1.79,3.78-14,12-27.72.4-.66.79-1.33,1.2-2,1.1-1.83,2.19-3.68,3.28-5.51,9.67-16.52,7.19-24.27,4.9-48.84-1.87-20-31.07-111.58-31.07-111.58l42.39-7.31s12.77,73,26.84,84.18c7.52,6,15.94,6.07,23.17,10.5.51.31,1,.63,1.51,1C2417.12,1643.16,2421.3,1646,2424.61,1649.76Z" transform="translate(-0.01 -0.01)"/><path class="cls-17" d="M2424.61,1649.76c3.29,3.78,3.71,8,2.08,12.51a.09.09,0,0,1,0,.06c-3.7,8.33-13.42,17.6-24.61,26.87-1.46,1.21-2.75,2.33-3.9,3.37-.3.27-.61.53-.89.8l-.68.61c-10.8,10-6.74,12.24-26.14,32.44-22.12,23-37.36,23.43-41.69,21.34-3.66-1.79,3.78-14,12-27.72a94.36,94.36,0,0,0,39.43-29.06c13.33-17,22.21-38.84,31.28-51.5.51.31,1,.63,1.51,1C2417.12,1643.16,2421.3,1646,2424.61,1649.76Z" transform="translate(-0.01 -0.01)"/><path class="cls-19" d="M2082.74,1623.28c-2.62,13.09-21.28,10.9-42.12,5.81s-15.89,1-45.55-2.32-38.65-14.35-39.55-18.76c-.81-3.91,13.85-5.29,29.57-7.1,2-.22,4-.47,6-.71,17.75-2.23,30.74-13.68,46.87-23.09,15.27-8.91,38.06-45.21,38.06-45.21l40.68,3.22s-21.35,32.42-29.61,46.52c-4.85,8.29-4.6,19.26-4,27.72C2083.37,1614,2083.67,1618.67,2082.74,1623.28Z" transform="translate(-0.01 -0.01)"/><path class="cls-17" d="M2040.62,1629.09c-20.84-5.09-15.89,1-45.55-2.32s-38.65-14.35-39.55-18.76c-.81-3.91,13.85-5.29,29.57-7.1l.14.3a83.63,83.63,0,0,0,42.48,13.2c20.13.49,41.44-5.27,55.34-5.05.32,4.6.62,9.31-.31,13.92C2080.12,1636.37,2061.46,1634.18,2040.62,1629.09Z" transform="translate(-0.01 -0.01)"/><path class="cls-17" d="M2238.63,1363.17l38,102.32,49.64,133.61s13.48,1.3,26.38-2.41c11.88-3.43,25.51-12.41,25.51-12.41s-13.79-143.46-39.5-225.81c-6.59-21.14-14-38.24-22.13-47.86C2276.69,1263.49,2238.63,1363.17,2238.63,1363.17Z" transform="translate(-0.01 -0.01)"/><path class="cls-16" d="M2277.29,1200.66c24.92-8,96,2.28,167.35,16.25l15-24.65,154.17-12s50.87,112.82,23,184.71c-4.09,10.56-12.23,17.34-26.09,17.56h-2.25s-91.76,0-121.56,0c-76.67,0-162.27-52.7-173.34-54.92-18.12-3.62-25.37,32.62-43.5,70.68s-170.36,168.55-170.36,168.55-23.39.23-33.06-3.39c-10.4-3.9-14.2-9-14.2-9S2221.11,1218.78,2277.29,1200.66Z" transform="translate(-0.01 -0.01)"/><path class="cls-17" d="M2460.49,979.94c54.9,30.23,166.28,92.9,166.86,92.49,0,0,40.93,15.43,64.16,0,38.71-25.7,59.46-94.89-11.32-154.43-35.31-29.69-60.39-36.92-64.2-84.33-2.07-25.73-37.23-110.62-95.66-102.77-4.88.66-34.93,2.06-54.68,12.43C2415.32,769.76,2378.19,968.24,2460.49,979.94Z" transform="translate(-0.01 -0.01)"/><path class="cls-19" d="M2506.51,954.21c-.24.16,27,9.46,45.23,1.39,17.15-7.58,30.14-35.78,29.88-35.8-7.8-.36-16.36-7.18-22.95-51.92l-3.32,1.2-55.84,20.09s4,17.91,6.66,35C2508.37,938.46,2509.56,952.18,2506.51,954.21Z" transform="translate(-0.01 -0.01)"/><path class="cls-27" d="M2499.51,889.17s4,17.91,6.66,35c32.07-5.77,44.66-37.72,49.18-55.06Z" transform="translate(-0.01 -0.01)"/><path class="cls-19" d="M2491.19,907s76.4-10.25,69.28-57.73-2-80.78-51.13-76.24-55.81,24.08-57.29,40.5S2471.14,908.39,2491.19,907Z" transform="translate(-0.01 -0.01)"/><path class="cls-17" d="M2454.83,787.46S2503.74,829.6,2537,833s45.86-7.28,45.86-7.28a129.9,129.9,0,0,1-31.41-42.55,23.37,23.37,0,0,0-19.28-13.79C2508.42,767.33,2463.39,766.39,2454.83,787.46Z" transform="translate(-0.01 -0.01)"/><path class="cls-17" d="M2485.4,783.68s-16.36,15.82-21.51,27.56c-5,11.32-6.46,38.4-2.51,49.15,0,0-25.49-49.56-11.05-73.64C2465.63,761.21,2485.4,783.68,2485.4,783.68Z" transform="translate(-0.01 -0.01)"/><path class="cls-1" d="M2442.18,1066.75c2.31,154.64.63,122.33,17.55,137,4.07,3.53,15.53,5.64,30.62,6.63,47.41,3.15,130.77-4.66,133.94-13.42,10.94-30.33,3.22-39.75,12.34-86.17.95-4.93,2.13-10.28,3.51-16.1,7.61-31.88,15-42.73-12-94-24.48-46.4-49.91-84.06-52.19-82.7-64.59,38.34-69.8,6.11-69.8,6.11S2441.05,991.32,2442.18,1066.75Z" transform="translate(-0.01 -0.01)"/><path class="cls-16" d="M2276.66,1465.49l49.64,133.61s13.48,1.3,26.38-2.41c11.88-3.43,25.51-12.41,25.51-12.41s-13.79-143.46-39.5-225.81Z" transform="translate(-0.01 -0.01)"/><path class="cls-1" d="M2506.17,924.14s-66.45,11.27-74.26,39.88-53.72,196.82-53.72,196.82,33.78,6.07,49.39-9.54,54.3-144.79,54.3-144.79Z" transform="translate(-0.01 -0.01)"/><path class="cls-28" d="M2490.35,1210.38c47.41,3.15,130.77-4.66,133.94-13.42,10.94-30.33,3.22-39.75,12.34-86.17l-22.87-64.4s3.78,71.72-17.37,90.58-86.59,36.41-96.87,52.17C2494.56,1196.71,2491.3,1204.29,2490.35,1210.38Z" transform="translate(-0.01 -0.01)"/><path class="cls-19" d="M2544.67,1180.22s-46.78-10.42-54.32-6.26-26,19.27-28.31,24.53,16.8-4,23-5.66c4-1.08,14.63,2.6,19.87,4.35,22.08,7.36,35.61,3.57,35.61,3.57Z" transform="translate(-0.01 -0.01)"/><path class="cls-1" d="M2576,918s62.82,3.87,84.57,34.2c30.61,42.69,91.33,224.64,56.53,248.91-39.19,27.33-178.37,7.15-178.37,7.15s-4.63-21.65,1.81-32.12,111.16-27.39,116-32.22-60.42-94.25-60.42-108.75S2576,918,2576,918Z" transform="translate(-0.01 -0.01)"/><path class="cls-19" d="M2488.08,1187s-9.8,12.64-13,14.15a9.57,9.57,0,0,1-5.29,1.13l6.6-11.89Z" transform="translate(-0.01 -0.01)"/><path class="cls-19" d="M2490.35,1174l-28.5,13.83s1.21,2,4.72,1.83,12.36-3.4,12.36-3.4Z" transform="translate(-0.01 -0.01)"/><polygon class="cls-9" points="2475.06 1220.49 2249.63 1220.49 2181.81 1051.85 2406.9 1051.85 2475.06 1220.49"/><polygon class="cls-26" points="2246.98 1213.92 2544.67 1213.92 2544.67 1220.49 2249.63 1220.49 2246.98 1213.92"/><path class="cls-1" d="M2306.54,1136.18c-1.7-5.93,1.73-10.73,7.65-10.73s12.12,4.8,13.82,10.73-1.73,10.73-7.66,10.73S2308.24,1142.11,2306.54,1136.18Z" transform="translate(-0.01 -0.01)"/><path class="cls-15" d="M426.48,1286.73l-4.8,3.32a11.31,11.31,0,0,1-15.74-2.85L378,1246.92a11.33,11.33,0,0,1,2.85-15.74l6.88-4.77a2.21,2.21,0,0,1,2.52,3.64l-6.88,4.77a6.87,6.87,0,0,0-1.73,9.57l27.92,40.29a6.89,6.89,0,0,0,9.58,1.74l4.8-3.33a6.89,6.89,0,0,0,1.73-9.58l-18.53-26.74a2.21,2.21,0,0,1,3.64-2.52L429.33,1271A11.33,11.33,0,0,1,426.48,1286.73Z" transform="translate(-0.01 -0.01)"/><path class="cls-15" d="M457.09,1326.45l-8.61,6c-8,5.54-19.32,3.08-25.25-5.48l-42-60.57a2.21,2.21,0,0,1,3.64-2.52l42,60.56c4.55,6.56,13.11,8.52,19.1,4.37l8.61-6c6-4.15,7.15-12.86,2.61-19.42l-47.82-69c-4.54-6.56-13.11-8.52-19.09-4.37a2.21,2.21,0,1,1-2.52-3.64c8-5.54,19.32-3.08,25.25,5.48l47.82,69C466.75,1309.44,465.08,1320.92,457.09,1326.45Z" transform="translate(-0.01 -0.01)"/><path class="cls-15" d="M514.83,1642.78l1,8.53a16.66,16.66,0,0,1-14.51,18.52l-71.59,8.69A16.66,16.66,0,0,1,411.25,1664l-1.48-12.22a3.25,3.25,0,1,1,6.46-.79l1.49,12.22a10.12,10.12,0,0,0,11.27,8.83l71.58-8.68a10.15,10.15,0,0,0,8.84-11.28l-1-8.53a10.14,10.14,0,0,0-11.27-8.83l-47.52,5.77a3.26,3.26,0,1,1-.79-6.47l47.52-5.76A16.64,16.64,0,0,1,514.83,1642.78Z" transform="translate(-0.01 -0.01)"/><path class="cls-15" d="M587.54,1630.21l1.85,15.3c1.73,14.2-9.25,27.25-24.46,29.1l-107.62,13.06a3.26,3.26,0,1,1-.79-6.47l107.62-13.06c11.65-1.41,20.08-11.21,18.79-21.85L581.07,1631c-1.29-10.64-11.82-18.14-23.46-16.73L435,1629.15c-11.65,1.41-20.08,11.22-18.79,21.85a3.25,3.25,0,1,1-6.46.79c-1.73-14.2,9.25-27.26,24.46-29.1l122.59-14.88C572,1606,585.81,1616,587.54,1630.21Z" transform="translate(-0.01 -0.01)"/><circle class="cls-9" cx="1744.56" cy="629.8" r="9.92" transform="translate(730.78 2182.98) rotate(-76.72)"/><rect class="cls-29" x="187.94" y="1781.59" width="2900.21" height="7.69" rx="3.29"/></svg>