<svg id="Слой_1" data-name="Слой 1" xmlns="http://www.w3.org/2000/svg" viewBox="0 0 582.55 320.75"><defs><style>.cls-1{fill:#fff;}.cls-2{fill:#ebf3fa;}.cls-3{fill:#dfebfd;}.cls-4{fill:#bed7fb;}.cls-5{fill:#9ec3f6;}.cls-6{fill:#cde0fb;}.cls-7{fill:#adcbf9;}.cls-12,.cls-8{fill:#d86713;}.cls-9{fill:#f99746;}.cls-10{fill:#ee9849;}.cls-11{fill:#f1a34f;}.cls-12{opacity:0.4;}.cls-13{fill:#699dee;}.cls-14{fill:#e9f3fe;}.cls-15{fill:#afcdfb;}.cls-16{fill:#2b478b;}.cls-17{fill:#233862;}.cls-18{fill:#c65447;}.cls-19{fill:#ffb27d;}.cls-20{fill:#e2915a;}.cls-21{fill:#fcecdb;}.cls-22{fill:#548ee2;}.cls-23{fill:#f4d2b8;}.cls-24{fill:#568cdb;}.cls-25{fill:#b5453c;}.cls-26{fill:#ed7d2b;}.cls-27{fill:#ed975d;}.cls-28{fill:#ebf3ff;}.cls-29{fill:#2e3552;}</style></defs><rect class="cls-1" x="268.68" y="47.44" width="260.87" height="201.07"/><path class="cls-2" d="M298.64,227S271.13,190.54,294,151.1c20.28-35,43.93-32.6,61.28-18.4,7.39,6,28.69.74,46.83-34.87,24.73-48.55,110.44-19.1,94.81,55.6-7.56,36.16,23,37.47,7.44,73.61Z"/><polygon class="cls-3" points="320.87 177.62 338.79 201.63 319.32 223.73 301.4 199.72 320.87 177.62"/><polygon class="cls-4" points="320.87 177.62 324.48 182.45 305.01 204.55 301.4 199.72 320.87 177.62"/><polygon class="cls-5" points="377.74 83.03 391.09 85.38 382.23 77.93 381.78 80.32 378.53 81.04 377.74 83.03"/><polygon class="cls-6" points="391.09 85.38 379.98 78.31 369.09 77.64 391.09 85.38"/><polygon class="cls-6" points="382.23 77.93 391.09 85.38 384.23 73.74 382.23 77.93"/><path class="cls-1" d="M452.39,115.51l-3.35,3-3.38-2.94a4,4,0,0,1,3.38-2.16A3.93,3.93,0,0,1,452.39,115.51Z"/><path class="cls-1" d="M449,106.14c-3.38,0-6.36,2.07-8.17,5.24l2.13,1.84a6.64,6.64,0,0,1,12,0l2.12-1.88A9.58,9.58,0,0,0,449,106.14Z"/><path class="cls-1" d="M449,92.38c-7.15,0-13.46,4.38-17.29,11.07l2.13,1.85c3.36-5.86,8.9-9.7,15.16-9.7s11.71,3.77,15.07,9.56l2.12-1.88C462.39,96.68,456.12,92.38,449,92.38Z"/><path class="cls-1" d="M449,99.91c-5.09,0-9.59,3.1-12.33,7.85l2.13,1.85c2.27-3.92,6-6.48,10.2-6.48s7.86,2.52,10.14,6.38l2.11-1.87C458.54,103,454.07,99.91,449,99.91Z"/><path class="cls-7" d="M379.38,133.54l-3.08-.09c1,1.59,1.21,3,.6,4.27s-2.09,2.29-4.29,3.08a58.93,58.93,0,0,0,2.5-17.14c0-12.79-4-25.31-11.65-34.67-7.37-9.09-17.33-14.37-28.11-14.37a33.48,33.48,0,0,0-17.22,4.82h0a45.72,45.72,0,0,0-5-1.57c-8.11-2-13.87-.63-16.21,3.95-2.23,4.36-1,10.91,3.4,18.56h0a54.23,54.23,0,0,0-2.63,7.47c-8.3.61-12.74,2.41-14.36,5.67-1.88,3.8.69,8.89,8.9,13.85,1.13.68,2.34,1.35,3.61,2a54.14,54.14,0,0,0,11.38,28.94,40.65,40.65,0,0,0,12.63,10.51c14.51,7.54,31.79,4,43.6-10.51a50.73,50.73,0,0,0,8.36-15.14c4.05-1,6.71-2.65,7.77-4.79A5.28,5.28,0,0,0,379.38,133.54Zm-9.5,8a49.88,49.88,0,0,1-10,1,119.14,119.14,0,0,1-20.47-1.7q.93-2.51,1.82-5.13a48.69,48.69,0,0,0,6.63,2.22,27.42,27.42,0,0,0,6.62.91c4.63,0,7.95-1.65,9.59-4.86a9.46,9.46,0,0,0,.66-1.68h-2.36c0,.09-.08.17-.13.26-1.21,2.38-3.94,3.61-7.76,3.61a26,26,0,0,1-6.19-.85,47,47,0,0,1-6.24-2.08c.57-1.76,1.12-3.54,1.66-5.36,1.44-4.89,2.67-9.75,3.67-14.41a91.19,91.19,0,0,0,24.63.76,57.33,57.33,0,0,1,.77,9.4A55.25,55.25,0,0,1,369.88,141.57Zm-49.2,24.31c-1.15-.51-1.73-2.55-2-4.16a45,45,0,0,1-.24-10.37c.15-2.14.4-4.41.72-6.79a91,91,0,0,1,13.91,5.93c-1,2.18-2.06,4.19-3.09,6a35.31,35.31,0,0,1-5.57,7.77C323.33,165.29,321.83,166.39,320.68,165.88Zm13.41-17.66A91.47,91.47,0,0,0,319.52,142q.25-1.65.57-3.36c1.37.38,2.77.75,4.17,1.11,4.13,1,8.24,1.92,12.27,2.64Q335.33,145.43,334.09,148.22Zm-8.92-10.32c-1.59-.41-3.16-.83-4.7-1.27.72-3.72,1.62-7.61,2.66-11.57a86,86,0,0,0,16.13,9.81q-1,2.9-2,5.63C333.29,139.8,329.24,138.93,325.17,137.9ZM312,87.58a40.07,40.07,0,0,0,15.05,18c-1.51,4.07-2.95,8.4-4.28,12.91L322,121a86.15,86.15,0,0,1-19-20.69h0A45.11,45.11,0,0,1,312,87.58Zm33.82-7c1.15.51,1.74,2.54,2,4.16A44.41,44.41,0,0,1,348,95.08a125.73,125.73,0,0,1-2.2,15.48,52.06,52.06,0,0,1-16.06-6.12,114.71,114.71,0,0,1,6.72-14.53,35.2,35.2,0,0,1,5.57-7.76,5.27,5.27,0,0,1,3.08-1.73A1.51,1.51,0,0,1,345.77,80.55Zm-.46,32.54c-1,4.5-2.17,9.2-3.56,13.94-.54,1.82-1.1,3.62-1.67,5.38a84.61,84.61,0,0,1-16.25-10q.42-1.51.87-3.06c1.3-4.4,2.7-8.64,4.18-12.61A53.58,53.58,0,0,0,345.31,113.09ZM361.82,91a49.47,49.47,0,0,1,9.71,20.71,88.88,88.88,0,0,1-23.61-.73,128.31,128.31,0,0,0,2.21-15.67c.36-5.19.32-11.33-1.39-14.79A37.41,37.41,0,0,1,361.82,91ZM335.35,77.46a30.7,30.7,0,0,1,7.64,1c-2.94,1.58-5.95,6-8.23,10a116.11,116.11,0,0,0-6.86,14.83c-5.94-4-11.55-10.09-14.24-17.28A32.81,32.81,0,0,1,335.35,77.46Zm-36.59,5.78c1.21-2.38,3.94-3.61,7.76-3.61a26,26,0,0,1,6.19.85c.87.22,1.75.47,2.66.77h0a45.32,45.32,0,0,0-13.84,16.58h0C298.15,91.65,297.14,86.41,298.76,83.24Zm3.12,19.65h0a90.29,90.29,0,0,0,19.41,20.75c-1.13,4.24-2.09,8.4-2.87,12.4a120.9,120.9,0,0,1-20.35-7.93,56.4,56.4,0,0,1,1.55-18.39A52.53,52.53,0,0,1,301.88,102.89Zm-7.81,23c-7.15-4.31-10.42-8.47-9-11.42,1.18-2.39,5.48-4,12.06-4.6a59.9,59.9,0,0,0-1.51,16.94C295.11,126.52,294.59,126.21,294.07,125.9ZM318,138c-.2,1.12-.39,2.23-.56,3.32L316.1,141a69.14,69.14,0,0,0-16.3-2.7,53.72,53.72,0,0,1-1.48-7.62A129.24,129.24,0,0,0,318,138Zm-17.46,2.85a69.06,69.06,0,0,1,15.05,2.6c.49.13,1,.28,1.46.42-.35,2.53-.61,5-.77,7.22-.3,4.3-.32,9.25.65,12.79a39.18,39.18,0,0,1-8.11-7.6A47.94,47.94,0,0,1,300.58,140.89ZM324,167.69c2.77-1.79,5.55-5.9,7.7-9.69,1.1-2,2.21-4.12,3.3-6.46a103.45,103.45,0,0,1,18,12.86A31.21,31.21,0,0,1,324,167.69Zm37.83-11.37A39.62,39.62,0,0,1,355,163a105.65,105.65,0,0,0-19-13.71c.92-2.06,1.82-4.24,2.7-6.52A131.8,131.8,0,0,0,356,144.5c1.39.05,2.75.05,4.06,0a59.85,59.85,0,0,0,9-.74A46.75,46.75,0,0,1,361.82,156.32Z"/><path class="cls-8" d="M361,141.19l-5.5,80.63s-.58,4.89,2.37,4.9H382s-3.64-1-3.6-3.31c.05-2.7,6.43-83,6.43-83Z"/><path class="cls-9" d="M383.54,225.26c-1,0-19.37.07-24.09,0-2.06,0-2.42-2.26-2.43-3.7a8.84,8.84,0,0,1,.06-1.2l.14-2.09.37-5.35.32-4.72.41-6.06.35-5.12,3.91-57.29L386.4,139s-2.69,33.6-4.59,58.05c-.21,2.73-.41,5.34-.6,7.78-.06.78-.11,1.54-.17,2.28-.18,2.31-.34,4.44-.48,6.32-.07,1-.14,1.9-.2,2.74-.24,3.3-.39,5.41-.39,5.81a4.4,4.4,0,0,0,0,.65C380.41,225.17,383.18,225.26,383.54,225.26Z"/><polygon class="cls-9" points="303.12 97.32 316.52 163.67 318.35 172.75 324.59 203.66 440.48 203.66 417.49 97.32 303.12 97.32"/><polygon class="cls-10" points="303.12 97.32 301.27 98.08 322.12 205.96 324.59 203.66 303.12 97.32"/><polygon class="cls-8" points="322.12 205.96 437.3 205.96 440.48 203.66 324.59 203.66 322.12 205.96"/><rect class="cls-11" x="362.57" y="225.29" width="24.94" height="1.46" transform="translate(750.08 452.04) rotate(180)"/><polygon class="cls-11" points="434.87 184.06 416.06 98.72 302.94 98.72 302.94 97.32 417.49 97.32 436.23 183.87 434.87 184.06"/><polygon class="cls-8" points="381.17 205.96 381.04 207.08 357.59 212.92 357.91 208.21 358.06 205.96 381.17 205.96"/><path class="cls-12" d="M383.54,225.26c-1,0-19.37.07-24.09,0-2.06,0-2.42-2.26-2.43-3.7l23.34-5.42c-.24,3.3-.39,5.41-.39,5.81a4.4,4.4,0,0,0,0,.65C380.41,225.17,383.18,225.26,383.54,225.26Z"/><polygon class="cls-12" points="375.5 182.13 324.59 203.66 318.35 172.75 375.5 182.13"/><polygon class="cls-13" points="303.12 97.32 417.49 97.32 436.05 182.78 319.79 182.78 303.12 97.32"/><path class="cls-8" d="M385.61,193.58c-.33-2.09-2-3.79-3.68-3.79s-2.81,1.7-2.48,3.79,2,3.8,3.68,3.8S385.94,195.68,385.61,193.58Z"/><polygon class="cls-14" points="430.65 179.08 323.57 179.08 311.44 119.5 310.51 114.93 309.72 111.03 309.09 107.92 307.86 101.9 413.4 101.9 413.47 102.23 414.74 107.92 415.44 111.03 416.31 114.93 417.33 119.5 430.65 179.08"/><polygon class="cls-14" points="430.65 179.28 323.57 179.28 311.44 119.7 310.51 115.14 309.72 111.24 309.09 108.12 307.86 102.1 413.4 102.1 413.47 102.43 414.74 108.12 415.44 111.24 416.31 115.14 417.33 119.7 430.65 179.28"/><polygon class="cls-15" points="414.74 107.92 309.09 107.92 307.86 101.9 413.36 101.9 413.47 102.23 414.74 107.92"/><path class="cls-14" d="M310.8,104.91c-.13-.63.18-1.15.69-1.15a1.37,1.37,0,0,1,1.16,1.15c.13.63-.18,1.14-.7,1.14A1.34,1.34,0,0,1,310.8,104.91Z"/><ellipse class="cls-14" cx="314.8" cy="104.91" rx="0.88" ry="1.2" transform="translate(-13.62 152.28) rotate(-26.64)"/><path class="cls-14" d="M317.19,104.91c-.13-.63.18-1.15.69-1.15a1.36,1.36,0,0,1,1.16,1.15c.13.63-.18,1.14-.69,1.14A1.35,1.35,0,0,1,317.19,104.91Z"/><path class="cls-16" d="M356.93,179.28H346.34c-.1-1-.19-2.1-.27-3.22-.14-2-.25-4.19-.33-6.45,0-.52,0-1.05-.05-1.58s0-1.35-.06-2c0-1.16,0-2.34-.06-3.52h0c0-1.5,0-3,0-4.54h0v-1.13h0v-1.06c0-3.26,0-6.45.11-9.42.12-6.58.32-12.06.42-14.69h0c0-1.08.07-1.68.07-1.68h0a3.07,3.07,0,0,1,.44.12c.19.05.42.13.69.23h0c.24.09.51.2.79.33h0a9.28,9.28,0,0,1,1.48.88h0a5.06,5.06,0,0,1,1.83,2.47c.28.9.93,5.74,1.72,12.16,0,.19.05.37.07.56.42,3.41.87,7.24,1.32,11.14.48,4.15,1,8.38,1.41,12.3C356.28,173.5,356.63,176.63,356.93,179.28Z"/><path class="cls-17" d="M354,179.28H341.64c-.24-1.25-.46-2.46-.66-3.6a47.63,47.63,0,0,1-.87-7.06,2.25,2.25,0,0,1,.54-1.54,2.5,2.5,0,0,1,.88-.64,8.62,8.62,0,0,1,4.1-.45c.53,0,1.07.11,1.6.19a38,38,0,0,1,5.65,1.33s.18.91.4,2.49c.16,1.19.34,2.76.47,4.62q.12,1.62.18,3.51C353.94,178.5,354,178.89,354,179.28Z"/><path class="cls-18" d="M348.27,168.64l-.12,1.09-.6,5.33-.1.92-.37,3.3H334.24c-.1-2.18-.2-4.31-.21-6.17,0-.2,0-.41,0-.6,0-2.8.2-4.87.85-5.39s3.18-.43,5.78,0l.78.12c1.52.25,3,.56,4.26.83l1.61.37C347.91,168.54,348.27,168.64,348.27,168.64Z"/><path class="cls-1" d="M334,132.69s7.06-5.63,12.12-2.75a10.57,10.57,0,0,1,2.39,2.63c1.83,2.49,5.4,42,5.4,42s-10.15,4.24-19.91-1.44Z"/><path class="cls-16" d="M346.54,129.8s7.15,3.61,8.11,6.38S358.77,156,358.77,158s-5.48.44-6.36-2.78c-.73-2.67-3.2-10.89-4.5-16.09Z"/><path class="cls-19" d="M345.06,132.55a6.85,6.85,0,0,1-5.53-1.39,23.11,23.11,0,0,0,1.18-5.13c0-.06,0-.12,0-.18a5.57,5.57,0,0,0,0-1.17h4s1.1.62,1.1,1v.66c0,.57,0,1.07.05,1.5a17,17,0,0,0,.21,2S346.63,132.17,345.06,132.55Z"/><path class="cls-20" d="M345.93,127.89a5,5,0,0,1-5.22-1.86l-.09-.12.11-.06c1.13-.57,3.71-.11,5.15.54C345.89,127,345.91,127.46,345.93,127.89Z"/><path class="cls-19" d="M339.71,123.86c.55,3.62,4.34,3.5,6,3.28.46-.07.75-.14.75-.14.52-.17.81-1.18.94-2.5a25.16,25.16,0,0,0-.43-7.45c-.54-1.47-1.55-3.07-5.37-1.92S339,119.22,339.71,123.86Z"/><path class="cls-17" d="M347.09,115a9.32,9.32,0,0,0-2.63-2.65c-2.16-1.44-4.92.05-4.93.06-3.12,1.69-3.93,4.63-2.28,9.21,1.75,4.85,3.41,4.3,3.41,4.3s-.35-.27-.32-1.78c0-.09,0-.16,0-.22a1.14,1.14,0,0,0-.26-.83,2.18,2.18,0,0,1-.25-2.07c.39-.43.94.09,1.11.5a.44.44,0,0,0,.69.18c1-.75.34-2.27,1.27-3.19s2.8-.15,4.2-.89C348.93,116.82,347.49,115.71,347.09,115Z"/><path class="cls-16" d="M347.6,179.28H332.23c.11-3.93.25-8.62.4-13.37,0-1.23.08-2.47.12-3.69,0-.52,0-1,.05-1.56.34-10.54.67-20.07.74-20.58.17-1.16.32-2.15.48-3,.49-2.5,1.09-3.87,2.39-5,.13-.12,1.18-.77,2.1-1.33l1.44-.88h0a1.7,1.7,0,0,1,.5.74,15.8,15.8,0,0,1,.56,1.51c.7,2.22,1.46,5.63,2,8.17h0c.33,1.64.58,2.91.65,3.28.12.62.27,1.82.45,3.44h0c.25,2.21.55,5.21.86,8.62h0c0,.35.07.71.1,1.06s.07.82.11,1.24h0c0,.14,0,.27,0,.41h0c.12,1.35.24,2.74.36,4.15h0c.1,1.17,1.54,2,1.64,3.2,0,.09,0,.26,0,.51,0,.5,0,1.3.07,2.22,0,.41,0,.85,0,1.29.05,2,.12,4.14.2,5.19,0,.05,0,.11,0,.18s0,.52,0,.9C347.59,176.78,347.59,178,347.6,179.28Z"/><path class="cls-17" d="M337.12,144.33s-.25,10.67,6.24,12,2.18,1.63,2.18,1.63-12.21-.64-12.41-1S337.12,144.33,337.12,144.33Z"/><path class="cls-17" d="M342.6,160.86l-.36.29h0a28.11,28.11,0,0,1-8.21,4.33c-.45.15-.91.29-1.39.42,0-1.23.08-2.47.12-3.69a11,11,0,0,1-1.61-.28c0-.16,0-.32.05-.48.54-.28,1.09-.54,1.61-.8l1.22-.58c1.76-.82,3.06-1.38,3.06-1.38l5.21,2Z"/><path class="cls-16" d="M344,160.68s-.67.2-1.74.47h0a34.58,34.58,0,0,1-8.21,1.13c-.43,0-.86,0-1.27-.06a11,11,0,0,1-1.61-.28,4.68,4.68,0,0,1-2.57-1.49c-4.38-5.51,2.39-25.28,3.82-27.2,1.66-2.24,4.7-3,6.37-3.3l.2,0c.59-.09,1-.11,1-.11h0l-.35,1.41c-.08.34-.18.73-.29,1.18-1,4.16-3,12.33-3.89,16.94a14.26,14.26,0,0,0-.42,3.25c.34,1.58,3.89,2.39,6.13,2.75.94.14,1.65.22,1.81.23h0l.13.66.31,1.57.3,1.55Z"/><polygon class="cls-9" points="356.2 170.15 341.15 169.37 344.2 146.23 359.26 147.01 356.2 170.15"/><path class="cls-19" d="M343,155.57s2.93-.25,3.08.59c.34,2-2.52,3.58-3.45,3.47S342.29,155.44,343,155.57Z"/><path class="cls-19" d="M358.44,151.71s-2.81-1.08-3.11-.3c-.7,1.81,1.78,4.2,2.7,4.35S359.12,151.78,358.44,151.71Z"/><path class="cls-17" d="M340.26,128.65a5.62,5.62,0,0,0-1.85,1.82s4.61,9.87,4.58,9.77S341.44,129.91,340.26,128.65Z"/><path class="cls-17" d="M346,128.79a4.14,4.14,0,0,1,1.36,1.71l.55,8.62s-1.17-6.32-1.77-9.18A6.05,6.05,0,0,1,346,128.79Z"/><path class="cls-18" d="M349.19,146.49a.72.72,0,0,1,.81-.57c.68.08,4.53.31,4.53.31s.75,0,.68.57Z"/><path class="cls-1" d="M344.78,124.68a1.4,1.4,0,0,0,1.3.38c.48-.1.75-.87.75-.87A3,3,0,0,0,344.78,124.68Z"/><polygon class="cls-1" points="416.12 131.88 405 131.93 401.39 114.9 412.51 114.85 416.12 131.88"/><polygon class="cls-7" points="409.76 117.09 405.09 117.11 405.04 116.86 409.7 116.84 409.76 117.09"/><polygon class="cls-7" points="410.5 117.79 404.64 117.81 404.59 117.56 410.45 117.54 410.5 117.79"/><polygon class="cls-7" points="412.11 121.25 404.5 121.29 404.45 121.04 412.06 121 412.11 121.25"/><polygon class="cls-7" points="412.29 122.08 404.68 122.12 404.63 121.87 412.23 121.83 412.29 122.08"/><polygon class="cls-7" points="412.46 122.91 404.86 122.95 404.8 122.7 412.41 122.66 412.46 122.91"/><polygon class="cls-7" points="412.64 123.74 405.03 123.78 404.98 123.53 412.58 123.49 412.64 123.74"/><polygon class="cls-7" points="412.81 124.57 405.21 124.61 405.15 124.36 412.76 124.32 412.81 124.57"/><polygon class="cls-7" points="413.24 126.59 405.64 126.63 405.58 126.38 413.19 126.34 413.24 126.59"/><polygon class="cls-7" points="413.42 127.42 405.81 127.46 405.76 127.21 413.36 127.17 413.42 127.42"/><polygon class="cls-7" points="413.59 128.25 405.99 128.29 405.94 128.04 413.54 128 413.59 128.25"/><polygon class="cls-7" points="413.77 129.09 406.16 129.12 406.11 128.87 413.71 128.83 413.77 129.09"/><polygon class="cls-7" points="413.94 129.91 406.34 129.95 406.29 129.7 413.89 129.66 413.94 129.91"/><polygon class="cls-1" points="420.6 153.04 409.48 153.09 405.87 136.06 417 136.01 420.6 153.04"/><polygon class="cls-7" points="414.24 138.25 409.57 138.27 409.52 138.02 414.18 137.99 414.24 138.25"/><polygon class="cls-7" points="414.98 138.95 409.13 138.97 409.07 138.72 414.93 138.69 414.98 138.95"/><polygon class="cls-7" points="416.59 142.41 408.99 142.45 408.93 142.19 416.54 142.16 416.59 142.41"/><polygon class="cls-7" points="416.77 143.24 409.16 143.28 409.11 143.03 416.71 142.99 416.77 143.24"/><polygon class="cls-7" points="416.94 144.07 409.34 144.11 409.29 143.85 416.89 143.82 416.94 144.07"/><polygon class="cls-7" points="417.12 144.9 409.51 144.94 409.46 144.69 417.07 144.65 417.12 144.9"/><polygon class="cls-7" points="417.3 145.73 409.69 145.77 409.64 145.51 417.24 145.48 417.3 145.73"/><polygon class="cls-7" points="417.72 147.75 410.12 147.79 410.06 147.54 417.67 147.5 417.72 147.75"/><polygon class="cls-7" points="417.9 148.58 410.29 148.62 410.24 148.37 417.85 148.33 417.9 148.58"/><polygon class="cls-7" points="418.07 149.41 410.47 149.45 410.42 149.2 418.02 149.16 418.07 149.41"/><polygon class="cls-7" points="418.25 150.24 410.64 150.28 410.59 150.03 418.2 149.99 418.25 150.24"/><polygon class="cls-7" points="418.43 151.07 410.82 151.11 410.77 150.86 418.37 150.82 418.43 151.07"/><polygon class="cls-1" points="425.11 174.34 413.99 174.39 410.38 157.36 421.51 157.31 425.11 174.34"/><polygon class="cls-7" points="418.75 159.55 414.08 159.57 414.03 159.32 418.69 159.29 418.75 159.55"/><polygon class="cls-7" points="419.49 160.25 413.64 160.27 413.58 160.02 419.44 160 419.49 160.25"/><polygon class="cls-7" points="421.1 163.71 413.5 163.75 413.44 163.5 421.05 163.46 421.1 163.71"/><polygon class="cls-7" points="421.28 164.54 413.67 164.58 413.62 164.32 421.23 164.29 421.28 164.54"/><polygon class="cls-7" points="421.45 165.37 413.85 165.41 413.8 165.16 421.4 165.12 421.45 165.37"/><polygon class="cls-7" points="421.63 166.2 414.03 166.24 413.97 165.99 421.58 165.95 421.63 166.2"/><polygon class="cls-7" points="421.81 167.03 414.2 167.07 414.15 166.82 421.75 166.78 421.81 167.03"/><polygon class="cls-7" points="422.23 169.05 414.63 169.09 414.58 168.84 422.18 168.8 422.23 169.05"/><polygon class="cls-7" points="422.41 169.88 414.81 169.92 414.75 169.67 422.36 169.63 422.41 169.88"/><polygon class="cls-7" points="422.59 170.71 414.98 170.75 414.93 170.5 422.53 170.46 422.59 170.71"/><polygon class="cls-7" points="422.76 171.54 415.16 171.58 415.1 171.33 422.71 171.29 422.76 171.54"/><polygon class="cls-7" points="422.94 172.38 415.33 172.41 415.28 172.16 422.88 172.12 422.94 172.38"/><polygon class="cls-1" points="410.49 174.48 371.59 174.66 360.4 121.8 365.46 115.07 397.88 114.93 410.49 174.48"/><polygon class="cls-7" points="387.16 123.86 373.45 123.92 373.3 123.18 387 123.12 387.16 123.86"/><polygon class="cls-7" points="389.35 125.92 372.14 126 371.98 125.25 389.19 125.18 389.35 125.92"/><polygon class="cls-7" points="394.08 136.1 371.73 136.21 371.57 135.46 393.93 135.36 394.08 136.1"/><polygon class="cls-7" points="394.6 138.54 372.24 138.65 372.09 137.91 394.44 137.8 394.6 138.54"/><polygon class="cls-7" points="395.12 140.99 372.76 141.09 372.6 140.35 394.96 140.24 395.12 140.99"/><polygon class="cls-7" points="395.63 143.43 373.28 143.53 373.12 142.79 395.48 142.69 395.63 143.43"/><polygon class="cls-7" points="396.15 145.87 373.79 145.97 373.64 145.23 395.99 145.13 396.15 145.87"/><polygon class="cls-7" points="397.41 151.81 375.05 151.91 374.89 151.17 397.25 151.06 397.41 151.81"/><polygon class="cls-7" points="397.93 154.25 375.57 154.35 375.41 153.61 397.77 153.5 397.93 154.25"/><polygon class="cls-7" points="398.44 156.69 376.09 156.79 375.93 156.05 398.29 155.95 398.44 156.69"/><polygon class="cls-7" points="398.96 159.13 376.6 159.23 376.45 158.49 398.8 158.39 398.96 159.13"/><polygon class="cls-7" points="399.48 161.57 377.12 161.67 376.96 160.93 399.32 160.83 399.48 161.57"/><polygon class="cls-7" points="360.4 121.8 366.88 121.77 365.46 115.07 360.4 121.8"/><path class="cls-21" d="M422.42,202.14h29.42a6.82,6.82,0,0,1,6.82,6.82v0a7,7,0,0,1-7,7H422.42a0,0,0,0,1,0,0V202.14A0,0,0,0,1,422.42,202.14Z"/><path class="cls-13" d="M485.69,207.82v2.07a7,7,0,0,1-.67,3,4.8,4.8,0,0,1-4.23,3H421.45a.8.8,0,0,1-.71-.87v-.31a.81.81,0,0,1,.71-.88h36.17a5,5,0,0,0,.51-.94,6.65,6.65,0,0,0,.53-2.64v-2.63a6.48,6.48,0,0,0-.15-1.41,6,6,0,0,0-.84-2.05H421.45a.8.8,0,0,1-.71-.87V203a.81.81,0,0,1,.71-.88h59.64c2.1,0,3.87,1.74,4.42,4.11A6.69,6.69,0,0,1,485.69,207.82Z"/><path class="cls-22" d="M485.51,206.25h-27a6,6,0,0,0-.84-2.05H421.45a.8.8,0,0,1-.71-.87V203a.81.81,0,0,1,.71-.88h59.64C483.19,202.14,485,203.88,485.51,206.25Z"/><polygon class="cls-23" points="422.42 209.04 426.81 209.27 422.42 209.41 422.42 209.04"/><polygon class="cls-23" points="422.42 211.2 432.87 211.43 422.42 211.57 422.42 211.2"/><path class="cls-16" d="M425.49,215.9h32.66a5.53,5.53,0,0,1,5.53,5.53v0a5.2,5.2,0,0,1-5.2,5.2h-33a0,0,0,0,1,0,0V215.9A0,0,0,0,1,425.49,215.9Z" transform="translate(889.17 442.54) rotate(-180)"/><path class="cls-21" d="M457.37,215.9h37.32a5.42,5.42,0,0,1,5.42,5.42v0a5.3,5.3,0,0,1-5.3,5.3H457.37a0,0,0,0,1,0,0V215.9a0,0,0,0,1,0,0Z" transform="translate(957.48 442.54) rotate(-180)"/><path class="cls-16" d="M454.8,226.63h46.64a.74.74,0,0,0,.65-.8h0a.74.74,0,0,0-.65-.8H454.8a.74.74,0,0,0-.65.8h0A.74.74,0,0,0,454.8,226.63Z"/><path class="cls-16" d="M454.8,217.51h46.64a.74.74,0,0,0,.65-.8h0a.74.74,0,0,0-.65-.81H454.8a.75.75,0,0,0-.65.81h0A.74.74,0,0,0,454.8,217.51Z"/><polygon class="cls-23" points="500.11 221.27 494.93 221.45 500.11 221.56 500.11 221.27"/><polygon class="cls-23" points="500.11 218.8 487.78 218.98 500.11 219.09 500.11 218.8"/><path class="cls-13" d="M487.91,218.94a2.47,2.47,0,0,1,.7,1.22,3,3,0,0,1,.06.43c0,1,0,3.28,0,3.28l1.56-1.14,1.55,1.14v-3.09a2.83,2.83,0,0,0-.38-1.52c-.12-.18-.26-.32-.43-.32Z"/><path class="cls-24" d="M487.91,218.94a2.47,2.47,0,0,1,.7,1.22l3.13.05s-.12-1.09-.77-1.27Z"/><path class="cls-21" d="M452.72,186.41H484.3a8,8,0,0,1,8,8v0a7.79,7.79,0,0,1-7.79,7.79H452.72a0,0,0,0,1,0,0V186.41a0,0,0,0,1,0,0Z" transform="translate(944.98 388.58) rotate(180)"/><path class="cls-25" d="M453.53,192.52v3.4a4.12,4.12,0,0,0,1.61,3.37,2.75,2.75,0,0,0,1.59.52h37.41a.91.91,0,0,1,.79,1v.4a.91.91,0,0,1-.79,1H429.52a5.26,5.26,0,0,1-4.48-2.88,7.86,7.86,0,0,1-1-3.87v-2.68a7.47,7.47,0,0,1,.51-2.75,5.17,5.17,0,0,1,4.63-3.58h64.95a.91.91,0,0,1,.79,1v.4a.9.9,0,0,1-.79,1H456.62a2.89,2.89,0,0,0-2.28,1.23A4.22,4.22,0,0,0,453.53,192.52Z"/><polygon class="cls-23" points="492.26 194.29 487.47 194.55 492.26 194.71 492.26 194.29"/><polygon class="cls-23" points="492.26 190.66 480.86 190.93 492.26 191.09 492.26 190.66"/><path class="cls-9" d="M481,190.87a2.75,2.75,0,0,1,1,1.32,2.33,2.33,0,0,1,.08.46c0,1.1,0,3.57,0,3.57l2.22-1.24,2.22,1.24v-3.35a2.51,2.51,0,0,0-.55-1.65.85.85,0,0,0-.61-.35Z"/><path class="cls-26" d="M481,190.87a2.75,2.75,0,0,1,1,1.32l4.45.05s-.17-1.17-1.09-1.37Z"/><path class="cls-17" d="M458.42,180.56a14.68,14.68,0,0,0,4.45,5.87h10.32S456.92,177.34,458.42,180.56Z"/><path class="cls-19" d="M466.35,213.3a1.44,1.44,0,0,1,.17,1.26h0a7.59,7.59,0,0,1-2,2.71l-.32.33a.27.27,0,0,0-.07.08l-.06.06c-.88,1-.55,1.23-2.13,3.26-1.8,2.31-3.05,2.36-3.4,2.14s.31-1.4,1-2.78l.1-.2.27-.56c.79-1.66.58-2.44.4-4.91-.16-2-2.54-11.22-2.54-11.22l3.46-.73s1,7.33,2.19,8.46c.61.61,1.3.61,1.89,1.06l.12.1A4.91,4.91,0,0,1,466.35,213.3Z"/><path class="cls-17" d="M466.35,213.3a1.44,1.44,0,0,1,.17,1.26h0a8.74,8.74,0,0,1-2,2.7c-.12.12-.23.23-.32.34a.27.27,0,0,0-.07.08l-.06.06c-.88,1-.55,1.23-2.13,3.26-1.8,2.31-3.05,2.36-3.4,2.14s.31-1.4,1-2.78a8,8,0,0,0,3.22-2.92c1.08-1.71,1.81-3.91,2.55-5.18l.12.1A4.91,4.91,0,0,1,466.35,213.3Z"/><path class="cls-19" d="M438.47,210.64c-.21,1.32-1.73,1.1-3.43.58s-1.29.1-3.71-.23-3.15-1.44-3.23-1.88,1.13-.54,2.41-.72l.49-.07c1.45-.22,2.51-1.38,3.82-2.32s3.1-4.55,3.1-4.55l3.32.33s-1.74,3.26-2.41,4.67a6,6,0,0,0-.33,2.79A6,6,0,0,1,438.47,210.64Z"/><path class="cls-17" d="M435,211.22c-1.7-.51-1.29.1-3.71-.23s-3.15-1.44-3.23-1.88,1.13-.54,2.41-.72l0,0a6,6,0,0,0,3.46,1.33c1.64.05,3.38-.53,4.51-.51a6,6,0,0,1,0,1.4C438.26,212,436.74,211.74,435,211.22Z"/><path class="cls-17" d="M451.18,184.49l3.1,10.29,4.05,13.43a5.39,5.39,0,0,0,2.15-.24,8.92,8.92,0,0,0,2.08-1.25s-1.12-14.42-3.22-22.7a16.53,16.53,0,0,0-1.8-4.81C454.29,174.47,451.18,184.49,451.18,184.49Z"/><path class="cls-16" d="M454.34,168.15c2-.81,7.82.23,13.64,1.64l1.22-2.48,12.57-1.21s4.14,11.34,1.87,18.57a2.18,2.18,0,0,1-2.12,1.76h-10.1c-6.25,0-13.23-5.3-14.13-5.52-1.48-.37-2.07,3.28-3.55,7.1s-13.88,17-13.88,17a9.11,9.11,0,0,1-2.7-.34,2.8,2.8,0,0,1-1.16-.9S449.76,170,454.34,168.15Z"/><path class="cls-17" d="M469.27,146c4.48,3,13.56,9.34,13.6,9.3s3.34,1.55,5.23,0c3.16-2.58,4.85-9.54-.92-15.53-2.88-3-4.92-3.71-5.23-8.47-.17-2.59-3-11.13-7.8-10.34a11.27,11.27,0,0,0-4.46,1.25C465.59,124.83,462.56,144.78,469.27,146Z"/><path class="cls-19" d="M473,143.37s2.2,1,3.69.14,2.46-3.59,2.44-3.6c-.64,0-1.34-.72-1.88-5.21l-.27.11-4.55,2s.33,1.81.54,3.52C473.17,141.79,473.27,143.17,473,143.37Z"/><path class="cls-27" d="M472.45,136.83s.33,1.81.54,3.52c2.62-.58,3.65-3.79,4-5.54Z"/><path class="cls-19" d="M471.77,138.62s6.23-1,5.65-5.8-.17-8.12-4.17-7.67-4.55,2.42-4.67,4.08S470.14,138.77,471.77,138.62Z"/><path class="cls-17" d="M468.81,126.61s4,4.24,6.7,4.58,3.74-.73,3.74-.73a13.06,13.06,0,0,1-2.56-4.28,2,2,0,0,0-1.58-1.39C473.18,124.59,469.51,124.49,468.81,126.61Z"/><path class="cls-17" d="M471.3,126.23a12,12,0,0,0-1.75,2.77,11.35,11.35,0,0,0-.21,4.94s-2.07-5-.9-7.4C469.69,124,471.3,126.23,471.3,126.23Z"/><path class="cls-1" d="M467.78,154.69c.19,15.55.05,12.3,1.43,13.77a4.42,4.42,0,0,0,2.49.67c3.87.32,10.67-.47,10.92-1.35.9-3.05.27-4,1-8.66.08-.5.17-1,.29-1.62.62-3.21,1.22-4.3-1-9.45-2-4.66-4.07-8.45-4.26-8.31-5.26,3.85-5.69.61-5.69.61S467.69,147.1,467.78,154.69Z"/><path class="cls-16" d="M454.28,194.78l4.05,13.43a5.39,5.39,0,0,0,2.15-.24,8.92,8.92,0,0,0,2.08-1.25s-1.12-14.42-3.22-22.7Z"/><path class="cls-1" d="M473,140.35s-5.41,1.13-6.05,4-4.38,19.79-4.38,19.79,2.75.61,4-1S471,148.63,471,148.63Z"/><path class="cls-28" d="M471.7,169.13c3.87.32,10.67-.47,10.92-1.35.9-3.05.27-4,1-8.66l-1.86-6.48s.3,7.21-1.42,9.11-7.06,3.66-7.9,5.24A6.79,6.79,0,0,0,471.7,169.13Z"/><path class="cls-19" d="M476.13,166.1s-3.81-1-4.43-.63a9.78,9.78,0,0,0-2.3,2.46c-.19.53,1.37-.4,1.87-.57a4,4,0,0,1,1.62.44,4.45,4.45,0,0,0,2.91.36Z"/><path class="cls-1" d="M478.69,139.73s5.12.39,6.89,3.44c2.5,4.29,7.45,22.59,4.61,25-3.2,2.74-14.54.72-14.54.72a6.9,6.9,0,0,1,.15-3.23c.52-1.06,9.06-2.76,9.45-3.24s-4.92-9.48-4.92-10.94S478.69,139.73,478.69,139.73Z"/><path class="cls-19" d="M471.52,166.78a8.73,8.73,0,0,1-1.06,1.42.64.64,0,0,1-.43.11l.54-1.19Z"/><path class="cls-19" d="M471.7,165.47l-2.32,1.39a.39.39,0,0,0,.39.18,4.46,4.46,0,0,0,1-.34Z"/><polygon class="cls-9" points="470.46 170.15 452.08 170.15 446.55 153.19 464.9 153.19 470.46 170.15"/><polygon class="cls-26" points="451.87 169.49 476.13 169.49 476.13 170.15 452.08 170.15 451.87 169.49"/><path class="cls-1" d="M456.72,161.67c-.14-.6.14-1.08.62-1.08a1.33,1.33,0,0,1,1.13,1.08c.14.59-.14,1.08-.62,1.08A1.34,1.34,0,0,1,456.72,161.67Z"/><path class="cls-15" d="M303.45,176.8l-.39.34a.81.81,0,0,1-1.28-.29l-2.28-4a1.32,1.32,0,0,1,.23-1.58l.56-.48a.16.16,0,0,1,.25.06.25.25,0,0,1,0,.31l-.56.48a.78.78,0,0,0-.14,1l2.27,4a.5.5,0,0,0,.78.17l.4-.33a.81.81,0,0,0,.14-1l-1.51-2.69a.25.25,0,0,1,0-.31.16.16,0,0,1,.25.05l1.51,2.69A1.3,1.3,0,0,1,303.45,176.8Z"/><path class="cls-15" d="M306,180.8l-.71.6a1.33,1.33,0,0,1-2.05-.55l-3.43-6.09a.27.27,0,0,1,.05-.31.16.16,0,0,1,.25.05l3.42,6.09A1,1,0,0,0,305,181l.7-.6a1.62,1.62,0,0,0,.21-2l-3.89-6.93a1,1,0,0,0-1.56-.44.16.16,0,0,1-.25-.06.25.25,0,0,1,0-.31,1.33,1.33,0,0,1,2.06.55l3.9,6.94A2.14,2.14,0,0,1,306,180.8Z"/><path class="cls-15" d="M310.65,212.6l.09.86a1.64,1.64,0,0,1-1.18,1.86l-5.84.87a1.45,1.45,0,0,1-1.51-1.46l-.12-1.22a.32.32,0,0,1,.23-.37.29.29,0,0,1,.3.29l.12,1.23a.87.87,0,0,0,.92.88l5.83-.87a1,1,0,0,0,.72-1.13l-.08-.86c-.06-.56-.47-1-.92-.89l-3.88.58a.28.28,0,0,1-.29-.28.32.32,0,0,1,.23-.37l3.87-.58A1.44,1.44,0,0,1,310.65,212.6Z"/><path class="cls-15" d="M316.58,211.34l.15,1.53a2.61,2.61,0,0,1-2,2.93L306,217.11c-.14,0-.27-.1-.29-.28a.32.32,0,0,1,.23-.37l8.77-1.31a2,2,0,0,0,1.54-2.2l-.16-1.53a1.75,1.75,0,0,0-1.91-1.69l-10,1.5a2,2,0,0,0-1.53,2.2.32.32,0,0,1-.24.36.28.28,0,0,1-.29-.28,2.61,2.61,0,0,1,2-2.93l10-1.5A2.32,2.32,0,0,1,316.58,211.34Z"/><ellipse class="cls-9" cx="410.91" cy="110.76" rx="0.81" ry="1"/><rect class="cls-29" x="284" y="226.56" width="236.44" height="0.77" rx="0.39"/></svg>