<svg id="Слой_1" data-name="Слой 1" xmlns="http://www.w3.org/2000/svg" viewBox="0 0 582.55 213.89"><defs><style>.cls-1{fill:#fff;}.cls-2{fill:#ebf3fa;}.cls-3{fill:#dfebfd;}.cls-4{fill:#bed7fb;}.cls-5{fill:#9ec3f6;}.cls-6{fill:#cde0fb;}.cls-7{fill:#adcbf9;}.cls-12,.cls-8{fill:#d86713;}.cls-9{fill:#f99746;}.cls-10{fill:#ee9849;}.cls-11{fill:#f1a34f;}.cls-12{opacity:0.4;}.cls-13{fill:#699dee;}.cls-14{fill:#e9f3fe;}.cls-15{fill:#afcdfb;}.cls-16{fill:#2b478b;}.cls-17{fill:#233862;}.cls-18{fill:#c65447;}.cls-19{fill:#ffb27d;}.cls-20{fill:#e2915a;}.cls-21{fill:#fcecdb;}.cls-22{fill:#548ee2;}.cls-23{fill:#f4d2b8;}.cls-24{fill:#568cdb;}.cls-25{fill:#b5453c;}.cls-26{fill:#ed7d2b;}.cls-27{fill:#ed975d;}.cls-28{fill:#ebf3ff;}.cls-29{fill:#2e3552;}</style></defs><rect class="cls-1" x="291.07" y="29.35" width="260.87" height="184.55"/><path class="cls-2" d="M321,194.11s-27.52-33.43-4.66-69.63c20.29-32.11,43.93-29.92,61.28-16.89,7.39,5.56,28.7.69,46.83-32,24.73-44.57,110.44-17.54,94.81,51-7.56,33.18,23,34.39,7.44,67.55Z"/><polygon class="cls-3" points="343.26 148.82 361.18 170.86 341.7 191.14 323.79 169.11 343.26 148.82"/><polygon class="cls-4" points="343.26 148.82 346.87 153.26 327.39 173.54 323.79 169.11 343.26 148.82"/><polygon class="cls-5" points="400.12 62.01 413.47 64.16 404.61 57.33 404.16 59.52 400.91 60.19 400.12 62.01"/><polygon class="cls-6" points="413.47 64.16 402.36 57.68 391.47 57.06 413.47 64.16"/><polygon class="cls-6" points="404.61 57.33 413.47 64.16 406.61 53.48 404.61 57.33"/><path class="cls-1" d="M474.78,91.82l-3.36,2.73L468,91.85a3.87,3.87,0,0,1,6.74,0Z"/><path class="cls-1" d="M471.42,83.22A9.69,9.69,0,0,0,463.25,88l2.13,1.69a6.91,6.91,0,0,1,12,0L479.54,88A9.68,9.68,0,0,0,471.42,83.22Z"/><path class="cls-1" d="M471.42,70.59c-7.15,0-13.46,4-17.29,10.16l2.13,1.7c3.36-5.38,8.9-8.91,15.16-8.91a18,18,0,0,1,15.07,8.78l2.12-1.73C484.77,74.54,478.5,70.59,471.42,70.59Z"/><path class="cls-1" d="M471.42,77.5a14.68,14.68,0,0,0-12.33,7.21l2.13,1.69a11.72,11.72,0,0,1,20.34-.08l2.12-1.72A14.67,14.67,0,0,0,471.42,77.5Z"/><path class="cls-7" d="M401.76,108.37l-3.08-.08c1,1.45,1.21,2.79.6,3.92s-2.09,2.1-4.29,2.82a49.9,49.9,0,0,0,2.5-15.73,48,48,0,0,0-11.65-31.82c-7.37-8.34-17.33-13.19-28.11-13.19a35.69,35.69,0,0,0-17.22,4.43h0a46.38,46.38,0,0,0-5-1.44c-8.11-1.87-13.87-.58-16.21,3.62-2.22,4-1,10,3.4,17h0a49.8,49.8,0,0,0-2.63,6.86c-8.3.56-12.74,2.21-14.36,5.2-1.87,3.49.69,8.17,8.9,12.71,1.13.63,2.34,1.25,3.61,1.87a47.47,47.47,0,0,0,11.38,26.56,40,40,0,0,0,12.63,9.64c14.51,6.93,31.8,3.69,43.6-9.64a45.44,45.44,0,0,0,8.36-13.89c4.05-.95,6.71-2.44,7.77-4.4A4.49,4.49,0,0,0,401.76,108.37Zm-9.5,7.37a53.64,53.64,0,0,1-10,.91,128.94,128.94,0,0,1-20.47-1.56q.93-2.3,1.83-4.7a52.21,52.21,0,0,0,6.62,2,30.29,30.29,0,0,0,6.62.83c4.63,0,7.95-1.52,9.59-4.46a8.4,8.4,0,0,0,.66-1.54h-2.36c0,.08-.08.16-.13.24-1.21,2.18-3.93,3.31-7.75,3.31a27.77,27.77,0,0,1-6.2-.78,49.83,49.83,0,0,1-6.24-1.91c.57-1.61,1.13-3.25,1.66-4.92,1.44-4.49,2.67-8.94,3.67-13.22a99.58,99.58,0,0,0,24.63.7,48.23,48.23,0,0,1,.77,8.62A46.94,46.94,0,0,1,392.26,115.74Zm-49.2,22.31c-1.15-.47-1.73-2.34-2-3.82a38.34,38.34,0,0,1-.24-9.51c.15-2,.4-4.06.72-6.24a94.52,94.52,0,0,1,13.91,5.45c-1,2-2.05,3.85-3.09,5.52a32.25,32.25,0,0,1-5.57,7.13C345.71,137.51,344.21,138.52,343.06,138.05Zm13.41-16.21a96,96,0,0,0-14.57-5.71q.27-1.53.57-3.09c1.38.35,2.77.69,4.18,1,4.12,1,8.23,1.77,12.26,2.42Q357.71,119.29,356.47,121.84Zm-8.92-9.47c-1.59-.37-3.16-.76-4.7-1.16.72-3.42,1.62-7,2.66-10.62a87.94,87.94,0,0,0,16.14,9c-.66,1.77-1.33,3.5-2,5.16C355.67,114.11,351.62,113.31,347.55,112.37ZM334.33,66.19c3,7,8.81,12.73,15.05,16.55-1.51,3.73-2.95,7.71-4.28,11.84l-.72,2.31c-7.91-5.83-14.61-12.52-19-19h0A41.62,41.62,0,0,1,334.33,66.19Zm33.83-6.46c1.14.47,1.73,2.34,2,3.82a37.45,37.45,0,0,1,.24,9.52,106.76,106.76,0,0,1-2.2,14.21,55.18,55.18,0,0,1-16.06-5.62,101.14,101.14,0,0,1,6.72-13.33,32.55,32.55,0,0,1,5.57-7.13,5.45,5.45,0,0,1,3.08-1.59A1.77,1.77,0,0,1,368.16,59.73Zm-.47,29.87c-1,4.13-2.17,8.44-3.56,12.79-.54,1.68-1.09,3.33-1.67,4.94a85.77,85.77,0,0,1-16.25-9.13c.28-.93.57-1.87.87-2.81,1.3-4,2.7-7.93,4.18-11.57A56.75,56.75,0,0,0,367.69,89.6Zm16.52-20.28a43.94,43.94,0,0,1,9.71,19,97.39,97.39,0,0,1-23.62-.67,108.74,108.74,0,0,0,2.21-14.39c.37-4.76.32-10.4-1.39-13.57A37.12,37.12,0,0,1,384.21,69.32ZM357.73,56.9a33.1,33.1,0,0,1,7.64.88c-2.94,1.45-5.95,5.49-8.23,9.19a103.38,103.38,0,0,0-6.86,13.6c-5.94-3.65-11.55-9.25-14.23-15.85A34.44,34.44,0,0,1,357.73,56.9Zm-36.59,5.3c1.22-2.18,3.94-3.31,7.76-3.31a28.21,28.21,0,0,1,6.19.78c.87.2,1.76.43,2.66.7h0a42.8,42.8,0,0,0-13.84,15.22h0C320.54,69.92,319.52,65.11,321.14,62.2Zm3.12,18h0a86,86,0,0,0,19.41,19c-1.13,3.89-2.09,7.71-2.87,11.38a129.07,129.07,0,0,1-20.35-7.27A47.75,47.75,0,0,1,322,86.5,44.45,44.45,0,0,1,324.26,80.24Zm-7.81,21.12c-7.15-4-10.42-7.77-9-10.48,1.18-2.2,5.48-3.68,12.06-4.23A51,51,0,0,0,318,102.2C317.49,101.93,317,101.64,316.45,101.36Zm24,11.14c-.2,1-.39,2-.56,3l-1.38-.37a74.53,74.53,0,0,0-16.3-2.47,47.33,47.33,0,0,1-1.48-7A137.67,137.67,0,0,0,340.42,112.5ZM323,115.11A75.74,75.74,0,0,1,338,117.5l1.47.39c-.36,2.32-.62,4.54-.78,6.62-.3,4-.32,8.5.65,11.75a38.4,38.4,0,0,1-8.11-7A43.08,43.08,0,0,1,323,115.11Zm23.41,24.6c2.77-1.64,5.56-5.41,7.7-8.89q1.67-2.7,3.3-5.93a104.16,104.16,0,0,1,18,11.8A33.57,33.57,0,0,1,346.37,139.71Zm37.84-10.43a38.1,38.1,0,0,1-6.82,6.11,105.52,105.52,0,0,0-19-12.58q1.36-2.85,2.69-6a141.53,141.53,0,0,0,17.26,1.6c1.4,0,2.75,0,4.06,0a64.64,64.64,0,0,0,9-.69A42.33,42.33,0,0,1,384.21,129.28Z"/><path class="cls-8" d="M383.36,115.39l-5.5,74s-.58,4.48,2.37,4.49c4.85,0,24.13,0,24.13,0s-3.65-.93-3.61-3c.05-2.47,6.43-76.16,6.43-76.16Z"/><path class="cls-9" d="M405.92,192.55c-.95,0-19.37.07-24.09,0-2.05,0-2.41-2.07-2.43-3.39a7.55,7.55,0,0,1,.06-1.11l.14-1.92.37-4.9.32-4.33.41-5.57.35-4.7L385,114.05l23.82-.7s-2.68,30.84-4.58,53.28c-.22,2.5-.42,4.9-.6,7.14-.06.72-.12,1.41-.18,2.1-.17,2.12-.34,4.07-.48,5.79-.07.91-.14,1.75-.2,2.52-.24,3-.38,5-.39,5.33a3.64,3.64,0,0,0,0,.6C402.79,192.47,405.56,192.55,405.92,192.55Z"/><polygon class="cls-9" points="325.5 75.13 338.9 136.02 340.73 144.36 346.97 172.72 462.87 172.72 439.87 75.13 325.5 75.13"/><polygon class="cls-10" points="325.5 75.13 323.65 75.83 344.5 174.84 346.97 172.72 325.5 75.13"/><polygon class="cls-8" points="344.5 174.84 459.68 174.84 462.87 172.72 346.97 172.72 344.5 174.84"/><rect class="cls-11" x="384.95" y="192.58" width="24.94" height="1.34" transform="translate(794.84 386.49) rotate(180)"/><polygon class="cls-11" points="457.25 154.74 438.44 76.42 325.32 76.42 325.32 75.13 439.87 75.13 458.62 154.56 457.25 154.74"/><polygon class="cls-8" points="403.55 174.84 403.42 175.87 379.97 181.23 380.29 176.9 380.44 174.84 403.55 174.84"/><path class="cls-12" d="M405.92,192.55c-.95,0-19.37.07-24.09,0-2.05,0-2.41-2.07-2.43-3.39l23.34-5c-.24,3-.38,5-.39,5.33a3.64,3.64,0,0,0,0,.6C402.79,192.47,405.56,192.55,405.92,192.55Z"/><polygon class="cls-12" points="397.88 152.97 346.97 172.72 340.73 144.36 397.88 152.97"/><polygon class="cls-13" points="325.5 75.13 439.87 75.13 458.43 153.56 342.17 153.56 325.5 75.13"/><path class="cls-8" d="M408,163.48a4.09,4.09,0,0,0-3.67-3.49c-1.7,0-2.81,1.56-2.48,3.49a4.08,4.08,0,0,0,3.67,3.48C407.21,167,408.32,165.4,408,163.48Z"/><polygon class="cls-14" points="453.04 150.16 345.95 150.16 333.82 95.48 332.9 91.29 332.1 87.71 331.47 84.85 330.24 79.33 435.78 79.33 435.86 79.63 437.13 84.85 437.82 87.71 438.69 91.29 439.72 95.48 453.04 150.16"/><polygon class="cls-14" points="453.04 150.35 345.95 150.35 333.82 95.67 332.9 91.48 332.1 87.9 331.47 85.04 330.24 79.51 435.78 79.51 435.86 79.82 437.13 85.04 437.82 87.9 438.69 91.48 439.72 95.67 453.04 150.35"/><polygon class="cls-15" points="437.13 84.85 331.47 84.85 330.24 79.33 435.74 79.33 435.86 79.63 437.13 84.85"/><path class="cls-14" d="M333.18,82.09c-.13-.58.18-1,.69-1a1.31,1.31,0,0,1,1.16,1c.13.58-.18,1-.69,1A1.31,1.31,0,0,1,333.18,82.09Z"/><ellipse class="cls-14" cx="337.18" cy="82.09" rx="0.86" ry="1.12" transform="translate(12.58 204.83) rotate(-34.4)"/><path class="cls-14" d="M339.57,82.09c-.13-.58.18-1,.7-1a1.3,1.3,0,0,1,1.15,1c.13.58-.18,1-.69,1A1.32,1.32,0,0,1,339.57,82.09Z"/><path class="cls-16" d="M379.31,150.35H368.72c-.1-.94-.19-1.93-.27-3-.14-1.85-.25-3.84-.33-5.92,0-.48,0-1-.05-1.44l-.06-1.88c0-1.06,0-2.14-.06-3.23h0q0-2.08,0-4.17h0v-1h0v-1c0-3,.05-5.92.11-8.64.12-6,.32-11.07.42-13.48h0c0-1,.07-1.55.07-1.55h0l.44.11c.19,0,.42.12.69.22h0c.24.08.51.18.79.3h0a8.7,8.7,0,0,1,1.48.81h0a4.69,4.69,0,0,1,1.83,2.26c.28.83.93,5.27,1.72,11.17,0,.16.05.33.07.5.42,3.14.87,6.65,1.33,10.24.48,3.8,1,7.68,1.4,11.28C378.67,145,379,147.92,379.31,150.35Z"/><path class="cls-17" d="M376.34,150.35H364c-.24-1.15-.46-2.26-.65-3.3a39.46,39.46,0,0,1-.88-6.49,2,2,0,0,1,.54-1.41,2.71,2.71,0,0,1,.89-.59,9.3,9.3,0,0,1,4.09-.41c.54,0,1.07.1,1.61.17a41.07,41.07,0,0,1,5.64,1.23s.19.83.4,2.28c.16,1.09.34,2.54.48,4.24.07,1,.14,2.07.17,3.22Z"/><path class="cls-18" d="M370.65,140.58l-.12,1-.6,4.89-.1.84-.37,3H356.62c-.1-2-.19-4-.21-5.66v-.56c0-2.56.19-4.46.84-4.94s3.18-.4,5.78,0l.78.11c1.52.24,3,.52,4.26.77l1.61.33Z"/><path class="cls-1" d="M356.41,107.59s7-5.17,12.11-2.53a10,10,0,0,1,2.39,2.42c1.83,2.28,5.4,38.53,5.4,38.53s-10.15,3.89-19.9-1.32Z"/><path class="cls-16" d="M368.92,104.93s7.15,3.32,8.11,5.86,4.12,18.18,4.12,20-5.48.41-6.36-2.55c-.73-2.46-3.2-10-4.5-14.77Z"/><path class="cls-19" d="M367.44,107.46a7.27,7.27,0,0,1-5.53-1.28,19.63,19.63,0,0,0,1.18-4.71s0-.1,0-.16a5.76,5.76,0,0,0,0-1.08h4s1.1.57,1.1,1c0,.21,0,.41,0,.6,0,.53,0,1,.05,1.38a13.46,13.46,0,0,0,.2,1.88S369,107.11,367.44,107.46Z"/><path class="cls-20" d="M368.32,103.18a5.2,5.2,0,0,1-5.23-1.71.37.37,0,0,1-.08-.11l.1,0c1.13-.52,3.71-.1,5.16.49C368.27,102.33,368.29,102.79,368.32,103.18Z"/><path class="cls-19" d="M362.09,99.48c.55,3.33,4.34,3.22,6,3,.46-.06.75-.12.75-.12.52-.16.81-1.09.94-2.3a21.18,21.18,0,0,0-.43-6.83c-.54-1.36-1.55-2.83-5.37-1.77S361.39,95.22,362.09,99.48Z"/><path class="cls-17" d="M369.48,91.38A9.3,9.3,0,0,0,366.84,89c-2.15-1.32-4.92,0-4.93,0-3.12,1.55-3.93,4.25-2.28,8.46,1.75,4.44,3.41,3.94,3.41,3.94s-.35-.24-.32-1.63a1.56,1.56,0,0,0,0-.2,1,1,0,0,0-.26-.76c-.39-.39-.57-1.58-.25-1.9s.94.08,1.12.45a.44.44,0,0,0,.68.17c1-.69.34-2.08,1.27-2.93s2.81-.14,4.2-.81C371.31,93,369.87,92,369.48,91.38Z"/><path class="cls-16" d="M370,150.35H354.61c.11-3.61.25-7.91.4-12.27,0-1.13.08-2.27.12-3.39,0-.48,0-.95.05-1.43.34-9.68.68-18.42.75-18.89.16-1.07.31-2,.48-2.76.48-2.29,1.08-3.55,2.39-4.63.12-.11,1.17-.71,2.09-1.23l1.44-.8h0a1.47,1.47,0,0,1,.5.68,11.12,11.12,0,0,1,.56,1.38c.7,2,1.46,5.17,2,7.5h0c.34,1.51.58,2.68.65,3,.12.57.27,1.67.46,3.16h0c.24,2,.54,4.79.85,7.92h0c0,.32.07.64.1,1s.08.76.11,1.14h0c0,.12,0,.25,0,.37h0c.12,1.24.24,2.52.36,3.82h0c.11,1.07,1.54,1.85,1.64,2.94,0,.08,0,.24,0,.46,0,.46,0,1.2.06,2,0,.38,0,.78,0,1.19.06,1.81.12,3.8.2,4.76a.81.81,0,0,1,0,.17c0,.19,0,.47,0,.83C370,148.06,370,149.13,370,150.35Z"/><path class="cls-17" d="M359.5,118.27s-.25,9.79,6.24,11,2.18,1.5,2.18,1.5-12.21-.59-12.41-.95S359.5,118.27,359.5,118.27Z"/><path class="cls-17" d="M365,133.44l-.35.27h0a29.08,29.08,0,0,1-8.21,4c-.44.14-.91.27-1.39.39,0-1.13.08-2.27.12-3.39a11.08,11.08,0,0,1-1.61-.25c0-.15,0-.3.05-.45l1.61-.73,1.22-.53c1.76-.76,3.07-1.27,3.07-1.27l5.2,1.87Z"/><path class="cls-16" d="M366.36,133.28s-.67.19-1.73.43h0a37.86,37.86,0,0,1-8.21,1c-.43,0-.86,0-1.27-.06a11.08,11.08,0,0,1-1.61-.25,4.81,4.81,0,0,1-2.57-1.38c-4.38-5.05,2.39-23.19,3.82-25,1.66-2.06,4.7-2.78,6.37-3l.21,0a9.48,9.48,0,0,1,1-.09h0s-.14.47-.36,1.29c-.08.31-.18.67-.29,1.08-1,3.82-3,11.32-3.89,15.55a12.71,12.71,0,0,0-.42,3c.35,1.44,3.89,2.18,6.13,2.51.94.14,1.65.2,1.81.22h0l.13.6.31,1.45.31,1.42Z"/><polygon class="cls-9" points="378.58 141.97 363.53 141.25 366.58 120.02 381.64 120.73 378.58 141.97"/><path class="cls-19" d="M365.35,128.59s2.93-.23,3.08.54c.34,1.81-2.52,3.29-3.45,3.18S364.68,128.47,365.35,128.59Z"/><path class="cls-19" d="M380.82,125.05s-2.81-1-3.11-.28c-.7,1.66,1.78,3.85,2.7,4S381.5,125.11,380.82,125.05Z"/><path class="cls-17" d="M362.64,103.88a5.68,5.68,0,0,0-1.85,1.67s4.61,9.06,4.59,9S363.82,105,362.64,103.88Z"/><path class="cls-17" d="M368.38,104a3.76,3.76,0,0,1,1.36,1.57l.55,7.91s-1.17-5.8-1.77-8.43A5,5,0,0,1,368.38,104Z"/><path class="cls-18" d="M371.57,120.25a.7.7,0,0,1,.81-.52c.68.07,4.53.29,4.53.29s.75,0,.68.52Z"/><path class="cls-1" d="M367.16,100.23a1.47,1.47,0,0,0,1.3.36c.48-.09.75-.8.75-.8A3.22,3.22,0,0,0,367.16,100.23Z"/><polygon class="cls-1" points="438.5 106.84 427.38 106.89 423.77 91.26 434.9 91.22 438.5 106.84"/><polygon class="cls-7" points="432.14 93.27 427.47 93.29 427.42 93.06 432.08 93.04 432.14 93.27"/><polygon class="cls-7" points="432.88 93.91 427.03 93.94 426.97 93.7 432.83 93.68 432.88 93.91"/><polygon class="cls-7" points="434.49 97.09 426.89 97.12 426.83 96.89 434.44 96.86 434.49 97.09"/><polygon class="cls-7" points="434.67 97.85 427.06 97.89 427.01 97.66 434.61 97.62 434.67 97.85"/><polygon class="cls-7" points="434.84 98.62 427.24 98.65 427.19 98.42 434.79 98.39 434.84 98.62"/><polygon class="cls-7" points="435.02 99.38 427.41 99.41 427.36 99.18 434.97 99.15 435.02 99.38"/><polygon class="cls-7" points="435.19 100.14 427.59 100.17 427.54 99.94 435.14 99.91 435.19 100.14"/><polygon class="cls-7" points="435.62 101.99 428.02 102.03 427.96 101.8 435.57 101.76 435.62 101.99"/><polygon class="cls-7" points="435.8 102.76 428.19 102.79 428.14 102.56 435.75 102.53 435.8 102.76"/><polygon class="cls-7" points="435.98 103.52 428.37 103.55 428.32 103.32 435.92 103.29 435.98 103.52"/><polygon class="cls-7" points="436.15 104.28 428.55 104.31 428.49 104.08 436.1 104.05 436.15 104.28"/><polygon class="cls-7" points="436.33 105.04 428.72 105.07 428.67 104.84 436.27 104.81 436.33 105.04"/><polygon class="cls-1" points="442.98 126.26 431.86 126.31 428.26 110.68 439.38 110.64 442.98 126.26"/><polygon class="cls-7" points="436.62 112.69 431.95 112.71 431.9 112.48 436.56 112.46 436.62 112.69"/><polygon class="cls-7" points="437.36 113.33 431.51 113.36 431.45 113.12 437.31 113.1 437.36 113.33"/><polygon class="cls-7" points="438.97 116.51 431.37 116.54 431.31 116.31 438.92 116.28 438.97 116.51"/><polygon class="cls-7" points="439.15 117.27 431.54 117.31 431.49 117.07 439.1 117.04 439.15 117.27"/><polygon class="cls-7" points="439.32 118.03 431.72 118.07 431.67 117.84 439.27 117.8 439.32 118.03"/><polygon class="cls-7" points="439.5 118.8 431.9 118.83 431.84 118.6 439.45 118.57 439.5 118.8"/><polygon class="cls-7" points="439.68 119.56 432.07 119.59 432.02 119.36 439.62 119.33 439.68 119.56"/><polygon class="cls-7" points="440.1 121.41 432.5 121.45 432.45 121.21 440.05 121.18 440.1 121.41"/><polygon class="cls-7" points="440.28 122.18 432.68 122.21 432.62 121.98 440.23 121.94 440.28 122.18"/><polygon class="cls-7" points="440.46 122.94 432.85 122.97 432.8 122.74 440.4 122.71 440.46 122.94"/><polygon class="cls-7" points="440.63 123.7 433.03 123.73 432.97 123.5 440.58 123.47 440.63 123.7"/><polygon class="cls-7" points="440.81 124.46 433.2 124.49 433.15 124.26 440.75 124.23 440.81 124.46"/><polygon class="cls-1" points="447.5 145.81 436.37 145.86 432.77 130.23 443.89 130.19 447.5 145.81"/><polygon class="cls-7" points="441.13 132.24 436.47 132.26 436.41 132.03 441.08 132.01 441.13 132.24"/><polygon class="cls-7" points="441.88 132.88 436.02 132.91 435.97 132.67 441.82 132.65 441.88 132.88"/><polygon class="cls-7" points="443.49 136.06 435.88 136.09 435.83 135.86 443.43 135.83 443.49 136.06"/><polygon class="cls-7" points="443.66 136.82 436.06 136.85 436 136.62 443.61 136.59 443.66 136.82"/><polygon class="cls-7" points="443.84 137.59 436.23 137.62 436.18 137.39 443.78 137.35 443.84 137.59"/><polygon class="cls-7" points="444.01 138.35 436.41 138.38 436.35 138.15 443.96 138.12 444.01 138.35"/><polygon class="cls-7" points="444.19 139.11 436.58 139.14 436.53 138.91 444.13 138.88 444.19 139.11"/><polygon class="cls-7" points="444.62 140.96 437.01 141 436.96 140.76 444.56 140.73 444.62 140.96"/><polygon class="cls-7" points="444.79 141.73 437.19 141.76 437.13 141.53 444.74 141.5 444.79 141.73"/><polygon class="cls-7" points="444.97 142.49 437.36 142.52 437.31 142.29 444.91 142.26 444.97 142.49"/><polygon class="cls-7" points="445.14 143.25 437.54 143.28 437.49 143.05 445.09 143.02 445.14 143.25"/><polygon class="cls-7" points="445.32 144.01 437.71 144.04 437.66 143.81 445.27 143.78 445.32 144.01"/><polygon class="cls-1" points="432.87 145.94 393.97 146.11 382.78 97.6 387.85 91.42 420.26 91.28 432.87 145.94"/><polygon class="cls-7" points="409.54 99.48 395.83 99.54 395.68 98.86 409.39 98.8 409.54 99.48"/><polygon class="cls-7" points="411.73 101.37 394.52 101.44 394.36 100.76 411.57 100.69 411.73 101.37"/><polygon class="cls-7" points="416.46 110.72 394.11 110.81 393.95 110.14 416.31 110.04 416.46 110.72"/><polygon class="cls-7" points="416.98 112.96 394.63 113.06 394.47 112.38 416.82 112.28 416.98 112.96"/><polygon class="cls-7" points="417.5 115.2 395.14 115.3 394.99 114.61 417.34 114.52 417.5 115.2"/><polygon class="cls-7" points="418.01 117.44 395.66 117.53 395.5 116.86 417.86 116.76 418.01 117.44"/><polygon class="cls-7" points="418.53 119.68 396.18 119.78 396.02 119.09 418.38 119 418.53 119.68"/><polygon class="cls-7" points="419.79 125.13 397.43 125.23 397.28 124.55 419.63 124.45 419.79 125.13"/><polygon class="cls-7" points="420.31 127.37 397.95 127.47 397.79 126.79 420.15 126.69 420.31 127.37"/><polygon class="cls-7" points="420.82 129.61 398.47 129.71 398.31 129.03 420.67 128.93 420.82 129.61"/><polygon class="cls-7" points="421.34 131.85 398.99 131.95 398.83 131.27 421.18 131.17 421.34 131.85"/><polygon class="cls-7" points="421.86 134.09 399.5 134.19 399.35 133.51 421.7 133.41 421.86 134.09"/><polygon class="cls-7" points="382.78 97.6 389.26 97.57 387.85 91.42 382.78 97.6"/><path class="cls-21" d="M444.8,171.33h30.12a6.12,6.12,0,0,1,6.12,6.12v.28a6.26,6.26,0,0,1-6.26,6.26h-30a0,0,0,0,1,0,0V171.33a0,0,0,0,1,0,0Z"/><path class="cls-13" d="M508.07,176.54v1.9a6.11,6.11,0,0,1-.66,2.79,4.83,4.83,0,0,1-4.24,2.76H443.83a.76.76,0,0,1-.71-.8v-.29a.76.76,0,0,1,.71-.8H480a4.72,4.72,0,0,0,.51-.87,5.65,5.65,0,0,0,.53-2.42v-2.42a5.61,5.61,0,0,0-1-3.17H443.83a.76.76,0,0,1-.71-.8v-.28a.76.76,0,0,1,.71-.81h59.64a4.73,4.73,0,0,1,4.42,3.77A5.68,5.68,0,0,1,508.07,176.54Z"/><path class="cls-22" d="M507.89,175.1h-27a5.51,5.51,0,0,0-.83-1.88H443.83a.76.76,0,0,1-.71-.8v-.28a.76.76,0,0,1,.71-.81h59.64A4.73,4.73,0,0,1,507.89,175.1Z"/><polygon class="cls-23" points="444.8 177.66 449.19 177.87 444.8 178 444.8 177.66"/><polygon class="cls-23" points="444.8 179.65 455.25 179.86 444.8 179.99 444.8 179.65"/><path class="cls-16" d="M447.87,184H481.1a5,5,0,0,1,5,5v.22a4.66,4.66,0,0,1-4.66,4.66H447.87a0,0,0,0,1,0,0V184A0,0,0,0,1,447.87,184Z" transform="translate(933.93 377.77) rotate(-180)"/><path class="cls-21" d="M479.75,184h37.88a4.87,4.87,0,0,1,4.87,4.87v.22a4.76,4.76,0,0,1-4.76,4.76h-38a0,0,0,0,1,0,0V184a0,0,0,0,1,0,0Z" transform="translate(1002.24 377.77) rotate(180)"/><path class="cls-16" d="M477.19,193.81h46.64a.7.7,0,0,0,.65-.74h0a.69.69,0,0,0-.65-.73H477.19a.69.69,0,0,0-.65.73h0A.7.7,0,0,0,477.19,193.81Z"/><path class="cls-16" d="M477.19,185.44h46.64a.7.7,0,0,0,.65-.74h0a.7.7,0,0,0-.65-.74H477.19a.7.7,0,0,0-.65.74h0A.7.7,0,0,0,477.19,185.44Z"/><polygon class="cls-23" points="522.49 188.89 517.31 189.05 522.49 189.15 522.49 188.89"/><polygon class="cls-23" points="522.49 186.62 510.16 186.79 522.49 186.89 522.49 186.62"/><path class="cls-13" d="M510.29,186.75a2.29,2.29,0,0,1,.7,1.12,1.23,1.23,0,0,1,.06.39c0,.93,0,3,0,3l1.56-1.05,1.56,1.05v-2.84a2.46,2.46,0,0,0-.39-1.4.59.59,0,0,0-.43-.29Z"/><path class="cls-24" d="M510.29,186.75a2.29,2.29,0,0,1,.7,1.12l3.13,0s-.12-1-.77-1.16Z"/><path class="cls-21" d="M475.1,156.89h32.4a7.15,7.15,0,0,1,7.15,7.15v.33a7,7,0,0,1-7,7H475.1a0,0,0,0,1,0,0V156.89A0,0,0,0,1,475.1,156.89Z" transform="translate(989.74 328.25) rotate(180)"/><path class="cls-25" d="M475.91,162.5v3.12a3.71,3.71,0,0,0,1.61,3.1,3,3,0,0,0,1.59.47h37.41a.85.85,0,0,1,.79.9v.37a.85.85,0,0,1-.79.9H451.9a5.33,5.33,0,0,1-4.48-2.64,6.79,6.79,0,0,1-1-3.56v-2.45a6.35,6.35,0,0,1,.51-2.53,5.12,5.12,0,0,1,4.63-3.29h64.95a.85.85,0,0,1,.79.9v.37a.84.84,0,0,1-.79.89H479a3,3,0,0,0-2.28,1.13A3.67,3.67,0,0,0,475.91,162.5Z"/><polygon class="cls-23" points="514.65 164.13 509.85 164.37 514.65 164.51 514.65 164.13"/><polygon class="cls-23" points="514.65 160.79 503.24 161.04 514.65 161.19 514.65 160.79"/><path class="cls-9" d="M503.36,161a2.59,2.59,0,0,1,1,1.21,2,2,0,0,1,.08.42c0,1,0,3.27,0,3.27l2.22-1.13,2.22,1.13v-3.07a2.2,2.2,0,0,0-.55-1.52.91.91,0,0,0-.61-.31Z"/><path class="cls-26" d="M503.36,161a2.59,2.59,0,0,1,1,1.21l4.45.05s-.17-1.08-1.09-1.26Z"/><path class="cls-17" d="M480.8,151.53a13.81,13.81,0,0,0,4.46,5.38h10.31S479.3,148.56,480.8,151.53Z"/><path class="cls-19" d="M488.73,181.58a1.18,1.18,0,0,1,.17,1.15h0a6.81,6.81,0,0,1-2,2.48c-.12.11-.23.21-.32.31a.46.46,0,0,0-.07.07l-.06.06c-.88.91-.55,1.13-2.13,3-1.8,2.12-3,2.16-3.4,2s.31-1.29,1-2.56a1.62,1.62,0,0,0,.1-.18l.27-.51c.79-1.53.59-2.24.4-4.51-.15-1.84-2.53-10.3-2.53-10.3l3.45-.67s1,6.73,2.19,7.77c.61.55,1.3.56,1.89,1l.12.09A4.54,4.54,0,0,1,488.73,181.58Z"/><path class="cls-17" d="M488.73,181.58a1.18,1.18,0,0,1,.17,1.15h0a8.19,8.19,0,0,1-2,2.48c-.12.11-.23.21-.32.31a.46.46,0,0,0-.07.07l-.06.06c-.88.91-.55,1.13-2.13,3-1.8,2.12-3,2.16-3.4,2s.31-1.29,1-2.56a7.74,7.74,0,0,0,3.22-2.68c1.08-1.57,1.81-3.58,2.55-4.75l.12.09A4.54,4.54,0,0,1,488.73,181.58Z"/><path class="cls-19" d="M460.86,179.13c-.22,1.21-1.74,1-3.44.54s-1.29.09-3.71-.22-3.15-1.32-3.22-1.73,1.12-.48,2.41-.65l.48-.07c1.45-.2,2.51-1.26,3.82-2.13s3.1-4.17,3.1-4.17l3.32.3s-1.74,3-2.41,4.29a5,5,0,0,0-.33,2.56A5.48,5.48,0,0,1,460.86,179.13Z"/><path class="cls-17" d="M457.42,179.67c-1.7-.47-1.29.09-3.71-.22s-3.15-1.32-3.22-1.73,1.12-.48,2.41-.65v0a6.31,6.31,0,0,0,3.46,1.21c1.64.05,3.38-.48,4.51-.46a5.48,5.48,0,0,1,0,1.28C460.64,180.34,459.12,180.14,457.42,179.67Z"/><path class="cls-17" d="M473.57,155.13l3.1,9.44,4,12.33a5.84,5.84,0,0,0,2.15-.22,9,9,0,0,0,2.08-1.15s-1.12-13.23-3.22-20.83a14.38,14.38,0,0,0-1.8-4.42C476.67,145.93,473.57,155.13,473.57,155.13Z"/><path class="cls-16" d="M476.72,140.14c2-.75,7.82.21,13.64,1.5l1.22-2.28,12.57-1.11s4.14,10.41,1.87,17a2.13,2.13,0,0,1-2.12,1.62H493.8c-6.25,0-13.22-4.86-14.13-5.07-1.48-.33-2.07,3-3.54,6.52s-13.89,15.56-13.89,15.56a9.6,9.6,0,0,1-2.7-.32,2.71,2.71,0,0,1-1.15-.82S472.14,141.81,476.72,140.14Z"/><path class="cls-17" d="M491.65,119.77c4.48,2.79,13.56,8.57,13.6,8.53s3.34,1.43,5.24,0c3.15-2.37,4.84-8.75-.93-14.25-2.88-2.74-4.92-3.4-5.23-7.78-.17-2.37-3-10.21-7.8-9.48a11.9,11.9,0,0,0-4.46,1.15C488,100.38,484.94,118.69,491.65,119.77Z"/><path class="cls-19" d="M495.4,117.39s2.21.88,3.69.13,2.46-3.3,2.44-3.3c-.64,0-1.34-.66-1.87-4.79l-.27.11-4.56,1.85s.33,1.66.55,3.23C495.56,115.94,495.65,117.21,495.4,117.39Z"/><path class="cls-27" d="M494.83,111.39s.33,1.66.55,3.23c2.61-.53,3.64-3.48,4-5.08Z"/><path class="cls-19" d="M494.16,113s6.22-.94,5.64-5.32-.16-7.46-4.17-7-4.55,2.22-4.67,3.74S492.52,113.17,494.16,113Z"/><path class="cls-17" d="M491.19,102s4,3.89,6.7,4.2,3.74-.67,3.74-.67a11.83,11.83,0,0,1-2.56-3.93,2,2,0,0,0-1.57-1.27C495.56,100.15,491.89,100.06,491.19,102Z"/><path class="cls-17" d="M493.68,101.66a11,11,0,0,0-1.75,2.54,9.48,9.48,0,0,0-.2,4.54s-2.08-4.58-.91-6.8S493.68,101.66,493.68,101.66Z"/><path class="cls-1" d="M490.16,127.78c.19,14.27,0,11.29,1.43,12.64a4.76,4.76,0,0,0,2.5.61c3.86.29,10.66-.43,10.92-1.24.89-2.79.26-3.66,1-7.95.08-.45.18-1,.29-1.48.62-2.94,1.22-4-1-8.67-2-4.28-4.07-7.76-4.25-7.63-5.27,3.53-5.69.56-5.69.56S490.07,120.82,490.16,127.78Z"/><path class="cls-16" d="M476.67,164.57l4,12.33a5.84,5.84,0,0,0,2.15-.22,9,9,0,0,0,2.08-1.15s-1.12-13.23-3.22-20.83Z"/><path class="cls-1" d="M495.38,114.62s-5.42,1-6.06,3.68-4.38,18.16-4.38,18.16,2.76.56,4-.88,4.43-13.36,4.43-13.36Z"/><path class="cls-28" d="M494.09,141c3.86.29,10.66-.43,10.92-1.24.89-2.79.26-3.66,1-7.95l-1.86-5.94s.31,6.62-1.42,8.36-7.06,3.36-7.9,4.81A5.65,5.65,0,0,0,494.09,141Z"/><path class="cls-19" d="M498.52,138.25s-3.82-1-4.43-.58a9.25,9.25,0,0,0-2.31,2.27c-.19.48,1.37-.37,1.88-.53a4.13,4.13,0,0,1,1.62.4,4.77,4.77,0,0,0,2.9.33Z"/><path class="cls-1" d="M501.07,114.05s5.12.36,6.89,3.16c2.5,3.94,7.45,20.73,4.61,23-3.19,2.52-14.54.66-14.54.66a5.85,5.85,0,0,1,.15-3c.52-1,9.06-2.52,9.45-3s-4.92-8.7-4.92-10S501.07,114.05,501.07,114.05Z"/><path class="cls-19" d="M493.9,138.87a8.2,8.2,0,0,1-1.06,1.31.67.67,0,0,1-.43.1l.54-1.09Z"/><path class="cls-19" d="M494.09,137.67,491.76,139a.41.41,0,0,0,.39.17,5.51,5.51,0,0,0,1-.32Z"/><polygon class="cls-9" points="492.84 141.97 474.46 141.97 468.93 126.41 487.28 126.41 492.84 141.97"/><polygon class="cls-26" points="474.25 141.36 498.51 141.36 498.51 141.97 474.46 141.97 474.25 141.36"/><path class="cls-1" d="M479.1,134.19c-.14-.55.14-1,.63-1a1.29,1.29,0,0,1,1.12,1c.14.54-.14,1-.62,1A1.3,1.3,0,0,1,479.1,134.19Z"/><path class="cls-15" d="M325.83,148.08l-.39.3a.85.85,0,0,1-1.28-.26l-2.28-3.72a1.14,1.14,0,0,1,.23-1.45l.57-.44a.17.17,0,0,1,.25.05.24.24,0,0,1-.05.29l-.56.44a.69.69,0,0,0-.14.88l2.27,3.72a.53.53,0,0,0,.79.16l.39-.31a.7.7,0,0,0,.14-.88l-1.51-2.47a.21.21,0,0,1,0-.28.16.16,0,0,1,.25,0l1.52,2.47A1.14,1.14,0,0,1,325.83,148.08Z"/><path class="cls-15" d="M328.33,151.74l-.7.55a1.39,1.39,0,0,1-2.06-.5l-3.42-5.59a.23.23,0,0,1,0-.29.17.17,0,0,1,.25.06l3.42,5.58a1.06,1.06,0,0,0,1.56.41l.7-.55a1.4,1.4,0,0,0,.22-1.79l-3.9-6.37a1.06,1.06,0,0,0-1.56-.4.17.17,0,0,1-.25,0,.22.22,0,0,1,.05-.29,1.38,1.38,0,0,1,2.05.51l3.9,6.36A1.83,1.83,0,0,1,328.33,151.74Z"/><path class="cls-15" d="M333,180.93l.08.79a1.51,1.51,0,0,1-1.18,1.71l-5.84.8a1.41,1.41,0,0,1-1.51-1.34l-.12-1.13a.29.29,0,0,1,.23-.33.28.28,0,0,1,.3.26l.12,1.13a.85.85,0,0,0,.92.81l5.83-.8a.91.91,0,0,0,.72-1l-.08-.79a.86.86,0,0,0-.92-.81l-3.87.53a.28.28,0,0,1-.3-.26.3.3,0,0,1,.23-.34l3.88-.53A1.41,1.41,0,0,1,333,180.93Z"/><path class="cls-15" d="M339,179.77l.15,1.41a2.42,2.42,0,0,1-2,2.69l-8.77,1.2a.27.27,0,0,1-.3-.26.29.29,0,0,1,.23-.33l8.78-1.21a1.83,1.83,0,0,0,1.53-2l-.15-1.42a1.71,1.71,0,0,0-1.92-1.54l-10,1.37a1.83,1.83,0,0,0-1.53,2,.29.29,0,0,1-.23.33.27.27,0,0,1-.3-.26,2.41,2.41,0,0,1,2-2.68l10-1.38A2.25,2.25,0,0,1,339,179.77Z"/><ellipse class="cls-9" cx="433.29" cy="87.46" rx="0.81" ry="0.92"/><rect class="cls-29" x="306.39" y="193.74" width="236.44" height="0.71" rx="0.35"/></svg>